<?xml version="1.0" encoding="UTF-8"?>
<svg id="Layer_1" data-name="Layer 1" xmlns="http://www.w3.org/2000/svg" viewBox="0 0 1484.48 1401.57">
  <defs>
    <style>
      .cls-1 {
        letter-spacing: -.02em;
      }

      .cls-2 {
        fill: #fff;
      }

      .cls-2, .cls-3 {
        stroke: #000;
        stroke-miterlimit: 10;
        stroke-width: 2px;
      }

      .cls-4 {
        stroke-width: 0px;
      }

      .cls-5 {
        font-family: HelveticaNeue-Medium, 'Helvetica Neue';
        font-size: 60px;
        font-weight: 500;
      }
    </style>
  </defs>
  <polygon class="cls-2" points="392.64 359.5 798.12 359.5 831.88 393.26 831.88 565.5 803.76 593.62 392.64 593.62 364.58 565.56 364.58 378.83 392.64 359.5"/>
  <polyline class="cls-2" points="392.64 359.5 450.64 334.5 831.88 334.5 798.12 359.5"/>
  <polyline class="cls-2" points="831.88 334.5 863.76 366.38 834.38 395.76"/>
  <polyline class="cls-2" points="863.76 366.38 863.76 543 836.57 570.19"/>
  <polygon class="cls-2" points="381.64 384.5 381.64 556.46 401.66 576.48 787.27 576.48 807.44 556.31 807.44 395.76 787.41 375.73 403.53 375.73 381.64 384.5"/>
  <path class="cls-2" d="M863.76,468.29s8.71,81.55,81.55,81.55,162.33-29.33,200.83,9.17-117.5,29-117.5,117.5,260.5,28.5,260.5,28.5"/>
  <circle class="cls-2" cx="1308.64" cy="703.5" r="31.5"/>
  <rect class="cls-2" x="1249.14" y="360" width="99" height="145"/>
  <polygon class="cls-3" points="1278.75 427.98 1281.11 428.31 1287.58 413.37 1285.23 413.03 1278.75 427.98"/>
  <polygon class="cls-3" points="1317.96 427.94 1315.61 428.28 1309.13 413.34 1311.49 413 1317.96 427.94"/>
  <rect class="cls-3" x="1298.28" y="442.83" width="2.43" height="16.17"/>
  <g>
    <path class="cls-4" d="M490.84,519.25l-12.48-14.3,2.6-29.25h-26.26l-10.53-11.44,1.56-18.33c.13-2.21.65-5.07.91-7.54.65-5.85,5.46-8.84,9.49-8.84,3.38,0,6.24-.13,7.02-.13h18.07c8.58,0,16.25.26,16.25,10.53,0,3.12-.26,5.85-.39,7.67l-1.56,17.55-3.9,3.77,3.25,3.38-4.03,46.93ZM488.89,513.4l3.51-40.04-4.16-4.42,5.07-4.68,1.43-16.64c.13-1.82.39-4.55.39-7.41,0-8.32-5.72-8.45-14.17-8.45h-18.07c-13,0-13.65.78-14.82,14.17l-1.43,17.42,9.23,10.01h27.56l-2.6,30.68,8.06,9.36ZM484.34,464.26h-28.73l2.08-23.27h28.6l-1.95,23.27ZM482.13,461.92l1.56-18.59h-23.79l-1.69,18.59h23.92Z"/>
    <path class="cls-4" d="M559.74,519.25l-12.48-14.3,2.6-29.25h-26.26l-10.53-11.44,1.56-18.33c.13-2.21.65-5.07.91-7.54.65-5.85,5.46-8.84,9.49-8.84,3.38,0,6.24-.13,7.02-.13h18.07c8.58,0,16.25.26,16.25,10.53,0,3.12-.26,5.85-.39,7.67l-1.56,17.55-3.9,3.77,3.25,3.38-4.03,46.93ZM557.79,513.4l3.51-40.04-4.16-4.42,5.07-4.68,1.43-16.64c.13-1.82.39-4.55.39-7.41,0-8.32-5.72-8.45-14.17-8.45h-18.07c-13,0-13.65.78-14.82,14.17l-1.43,17.42,9.23,10.01h27.56l-2.6,30.68,8.06,9.36ZM553.24,464.26h-28.73l2.08-23.27h28.6l-1.95,23.27ZM551.03,461.92l1.56-18.59h-23.79l-1.69,18.59h23.92Z"/>
    <path class="cls-4" d="M592.63,502.35l-1.04,13.65h-13.91l1.04-13.65h13.91ZM594.97,473.1l-1.04,13.65h-13.91l1.04-13.65h13.91ZM590.03,504.69h-9.23l-.65,8.97h9.23l.65-8.97ZM592.37,475.44h-9.23l-.65,8.97h9.23l.65-8.97Z"/>
    <path class="cls-4" d="M651.13,519.25l-12.48-14.3,2.6-29.25h-26.26l-10.53-11.44,1.56-18.33c.13-2.21.65-5.07.91-7.54.65-5.85,5.46-8.84,9.49-8.84,3.38,0,6.24-.13,7.02-.13h18.07c8.58,0,16.25.26,16.25,10.53,0,3.12-.26,5.85-.39,7.67l-1.56,17.55-3.9,3.77,3.25,3.38-4.03,46.93ZM649.18,513.4l3.51-40.04-4.16-4.42,5.07-4.68,1.43-16.64c.13-1.82.39-4.55.39-7.41,0-8.32-5.72-8.45-14.17-8.45h-18.07c-13,0-13.65.78-14.82,14.17l-1.43,17.42,9.23,10.01h27.56l-2.6,30.68,8.06,9.36ZM644.63,464.26h-28.73l2.08-23.27h28.6l-1.95,23.27ZM642.42,461.92l1.56-18.59h-23.79l-1.69,18.59h23.92Z"/>
    <path class="cls-4" d="M720.03,519.25l-12.48-14.3,2.6-29.25h-26.26l-10.53-11.44,1.56-18.33c.13-2.21.65-5.07.91-7.54.65-5.85,5.46-8.84,9.49-8.84,3.38,0,6.24-.13,7.02-.13h18.07c8.58,0,16.25.26,16.25,10.53,0,3.12-.26,5.85-.39,7.67l-1.56,17.55-3.9,3.77,3.25,3.38-4.03,46.93ZM718.08,513.4l3.51-40.04-4.16-4.42,5.07-4.68,1.43-16.64c.13-1.82.39-4.55.39-7.41,0-8.32-5.72-8.45-14.17-8.45h-18.07c-13,0-13.65.78-14.82,14.17l-1.43,17.42,9.23,10.01h27.56l-2.6,30.68,8.06,9.36ZM713.53,464.26h-28.73l2.08-23.27h28.6l-1.95,23.27ZM711.32,461.92l1.56-18.59h-23.79l-1.69,18.59h23.92Z"/>
  </g>
  <text class="cls-5" transform="translate(57.48 1092.84)"><tspan x="0" y="0">A scene with a b</tspan><tspan class="cls-1" x="457.98" y="0">r</tspan><tspan x="478.02" y="0">oken, flickering clock, a plug, and </tspan><tspan x="0" y="72">a powerpoint. User finds out they can move the </tspan><tspan x="0" y="144">plug (ci</tspan><tspan class="cls-1" x="202.32" y="144">r</tspan><tspan x="222.36" y="144">cle).</tspan></text>
</svg>