<?xml version="1.0" encoding="UTF-8"?>
<svg id="Layer_1" data-name="Layer 1" xmlns="http://www.w3.org/2000/svg" viewBox="0 0 841.89 595.28">
  <defs>
    <style>
      .cls-1 {
        stroke-dasharray: 0 0 2.33 2.33;
      }

      .cls-1, .cls-2, .cls-3, .cls-4, .cls-5, .cls-6, .cls-7, .cls-8 {
        stroke: #231f20;
        stroke-miterlimit: 10;
      }

      .cls-1, .cls-2, .cls-3, .cls-5, .cls-6, .cls-7, .cls-8 {
        stroke-width: .5px;
      }

      .cls-1, .cls-2, .cls-4, .cls-5, .cls-6, .cls-7, .cls-8 {
        fill: none;
      }

      .cls-2 {
        stroke-dasharray: 0 0 2.13 2.13;
      }

      .cls-3 {
        fill: #fff;
      }

      .cls-4 {
        stroke-width: .75px;
      }

      .cls-5 {
        stroke-dasharray: 0 0 2.12 2.12;
      }

      .cls-6 {
        stroke-dasharray: 0 0 2.01 2.01;
      }

      .cls-7 {
        stroke-dasharray: 0 0 2.1 2.1;
      }
    </style>
  </defs>
  <g>
    <rect class="cls-3" x="558.19" y="485.23" width="233.32" height="17.13" transform="translate(-4.56 6.29) rotate(-.53)"/>
    <rect class="cls-3" x="558.76" y="546.75" width="233.32" height="17.13" transform="translate(-5.13 6.3) rotate(-.53)"/>
    <rect class="cls-3" x="526.35" y="456.37" width="27.99" height="17.13" transform="translate(1000.24 -79.7) rotate(89.47)"/>
    <polyline class="cls-8" points="546.54 499.95 549.23 499.92 558.15 489.91"/>
    <polyline class="cls-8" points="537.59 491.71 537.25 489.04 545.99 478.88"/>
    <polyline class="cls-8" points="547.27 560.95 549.96 560.92 558.88 550.92"/>
    <polyline class="cls-8" points="538.31 552.72 537.98 550.05 546.72 539.89 549.68 540.11"/>
    <polyline class="cls-8" points="812.91 552.05 813.32 549.39 804.48 538.44 802.1 538.17"/>
    <polyline class="cls-8" points="803.32 559.56 800.63 559.45 792.03 549.17"/>
    <polygon class="cls-3" points="557.7 441.92 791.01 439.75 801.25 447.52 801.52 476.65 791.88 484.14 558.11 486.31 549.04 478.54 548.78 451.25 557.7 441.92"/>
    <polygon class="cls-3" points="558.27 503.44 791.58 501.27 801.83 509.04 802.1 538.17 792.45 545.66 558.69 547.83 549.61 540.05 549.35 512.77 558.27 503.44"/>
    <rect class="cls-3" x="795.5" y="453.61" width="28.91" height="17.13" transform="translate(1264.58 -352.04) rotate(89.47)"/>
    <rect class="cls-3" x="542.57" y="541.84" width="11.71" height="17.13" transform="translate(499.55 -225.05) rotate(41.29)"/>
    <rect class="cls-3" x="796.82" y="540.33" width="11.71" height="17.13" transform="translate(-168.06 605.94) rotate(-37.73)"/>
    <rect class="cls-3" x="541.94" y="480.78" width="11.71" height="17.13" transform="translate(459.1 -239.81) rotate(41.29)"/>
    <rect class="cls-3" x="795.86" y="478.86" width="11.71" height="17.13" transform="translate(-130.64 592.5) rotate(-37.73)"/>
    <polyline class="cls-8" points="811.86 490.49 812.27 487.83 803.43 476.88 801.05 476.61"/>
    <polyline class="cls-8" points="802.27 497.99 799.58 497.89 791.36 488.06"/>
    <polyline class="cls-8" points="531.91 479.01 528.5 475.66 528.3 454.21 531.54 450.91"/>
    <polyline class="cls-8" points="531.35 451.02 533.46 447.62 546.96 447.49 549.05 450.75"/>
    <polyline class="cls-8" points="818.65 476.88 822.01 473.3 821.8 450.76 818.49 447.35"/>
    <polyline class="cls-8" points="818.66 447.62 816.53 444.26 803.25 444.38 801.26 447.67"/>
    <polyline class="cls-8" points="557.7 441.92 560.67 435.74 789.72 433.61 791.01 439.55"/>
    <polyline class="cls-8" points="792.15 562.79 789.17 567.59 560.12 569.72 558.85 565.11"/>
  </g>
  <polyline class="cls-8" points="19.8 181.87 17.39 184.72 20.4 196.68 23.65 197.58"/>
  <g>
    <rect class="cls-8" x="620.23" y="281.7" width="31.38" height="15.62" transform="translate(-49.33 426.05) rotate(-35.75)"/>
    <g>
      <polyline class="cls-4" points="330.42 30.58 322.79 30.58 308.48 68.74 303.23 123.12 303.23 222.34 315.28 279.93 320.42 285.07 332.66 284.88 337.8 279.74 349.85 222.15 349.85 122.93 344.6 68.55 330.29 30.38 322.66 30.38"/>
      <polyline class="cls-4" points="303.23 150.08 54.52 190.21 23.25 198.02 13.35 207.92 21.95 216.52 55.04 234.5 320.42 285.07"/>
      <polyline class="cls-4" points="350.09 150.08 598.8 190.21 630.07 198.02 639.97 207.92 631.37 216.52 598.28 234.5 332.9 285.07"/>
      <line class="cls-4" x1="311.82" y1="59.2" x2="340.87" y2="59.2"/>
      <line class="cls-4" x1="303.23" y1="123.12" x2="349.85" y2="123.12"/>
      <line class="cls-4" x1="323.95" y1="59.2" x2="323.95" y2="123.12"/>
      <line class="cls-4" x1="329.66" y1="59.2" x2="329.66" y2="123.12"/>
      <polyline class="cls-4" points="366.89 152.83 366.89 157.73 363.64 163.18 355.64 165.85 352.21 176.9 349.85 181.86"/>
      <polyline class="cls-4" points="342.55 257.05 511.96 222.29 511.96 250.95"/>
      <line class="cls-4" x1="511.96" y1="226.11" x2="639.97" y2="207.92"/>
      <rect class="cls-4" x="466.98" y="178.22" width="20.73" height="8.88"/>
      <polyline class="cls-4" points="477.35 229.39 477.35 232.88 489.22 230.02 489.22 226.95"/>
      <polyline class="cls-4" points="379.68 249.43 379.68 258.32 392.26 256 392.26 246.85"/>
      <polyline class="cls-4" points="345.88 256.3 345.6 264.72 351.42 259.27 351.56 255.33"/>
      <rect class="cls-4" x="515.69" y="218.88" width="11.14" height="3.41" transform="translate(-22.96 65.04) rotate(-6.99)"/>
      <polyline class="cls-4" points="543.67 244.91 543.67 239.67 552.81 237.44 552.81 243.16"/>
      <polyline class="cls-4" points="286.43 151.98 286.43 156.87 289.68 162.33 297.68 165 301.11 176.05 303.47 181"/>
      <polyline class="cls-4" points="310.77 256.19 141.36 221.43 141.36 250.09"/>
      <line class="cls-4" x1="141.36" y1="225.26" x2="13.35" y2="207.07"/>
      <rect class="cls-4" x="165.6" y="177.37" width="20.73" height="8.88"/>
      <polyline class="cls-4" points="175.97 228.54 175.97 232.02 164.1 229.17 164.1 226.1"/>
      <polyline class="cls-4" points="273.64 248.58 273.64 257.47 261.06 255.15 261.06 245.99"/>
      <polyline class="cls-4" points="307.44 255.44 307.72 263.87 301.9 258.42 301.76 254.47"/>
      <rect class="cls-4" x="126.49" y="218.03" width="11.14" height="3.41" transform="translate(236.41 453.89) rotate(-173.01)"/>
      <polyline class="cls-4" points="109.65 244.05 109.65 238.81 100.51 236.59 100.51 242.31"/>
    </g>
    <g>
      <polyline class="cls-4" points="420.14 542.69 427.24 539.88 426.5 499.13 411.37 446.63 374.85 354.37 342.45 305.26 335.79 302.37 324.47 307.06 321.59 313.72 331.57 371.71 368.09 463.97 392.98 512.6 420.33 542.82 427.43 540.01"/>
      <polyline class="cls-4" points="401.44 421.56 617.94 292.72 644.13 273.95 649.7 261.1 638.54 256.27 601.15 251.73 335.79 302.37"/>
      <polyline class="cls-4" points="111.85 493.03 79.9 497.26 67.05 491.7 71.88 480.54 96.03 451.65 324.18 306.97"/>
      <line class="cls-4" x1="357.87" y1="438.81" x2="111.85" y2="493.03"/>
    </g>
    <rect class="cls-8" x="332.49" y="260.03" width="270.03" height="16.7" transform="translate(-42.04 92.44) rotate(-10.81)"/>
    <rect class="cls-8" x="319.97" y="285.07" width="13.15" height="16.7" transform="translate(653.08 586.84) rotate(180)"/>
    <rect class="cls-8" x="50.77" y="259.9" width="270.03" height="16.7" transform="translate(317.96 566.57) rotate(-169.19)"/>
    <rect class="cls-8" x="349.66" y="155.01" width="252.68" height="15.62" transform="translate(920.07 399.24) rotate(-170.85)"/>
    <rect class="cls-8" x="109.73" y="465.78" width="252.68" height="15.62" transform="translate(568.48 885.31) rotate(167.58)"/>
    <rect class="cls-8" x="58.06" y="453.41" width="38.46" height="15.62" transform="translate(-328.29 228.41) rotate(-50.63)"/>
    <rect class="cls-8" x="602.51" y="237.93" width="37.66" height="15.62" transform="translate(34.51 -73.76) rotate(6.99)"/>
    <rect class="cls-8" x="21.11" y="178.43" width="31.38" height="15.62" transform="translate(-43.1 14.03) rotate(-13.71)"/>
    <rect class="cls-8" x="281.94" y="128.79" width="26.96" height="15.62" transform="translate(158.82 432.02) rotate(-90)"/>
    <rect class="cls-8" x="270.93" y="87.55" width="54.23" height="15.62" transform="translate(173.55 382.46) rotate(-84.3)"/>
    <rect class="cls-8" x="288.06" y="38.7" width="40.53" height="15.62" transform="translate(155.68 318.41) rotate(-69.27)"/>
    <rect class="cls-8" x="423.13" y="541.02" width="7.46" height="15.62" transform="translate(-172.55 196.51) rotate(-21.68)"/>
    <rect class="cls-8" x="400.55" y="423.12" width="26.96" height="15.62" transform="translate(665.47 -111.19) rotate(68.74)"/>
    <rect class="cls-8" x="399.42" y="462.51" width="54.23" height="15.62" transform="translate(765.18 -66.76) rotate(74.44)"/>
    <rect class="cls-8" x="414.41" y="511.75" width="40.53" height="15.62" transform="translate(950.18 80.08) rotate(89.47)"/>
    <polyline class="cls-8" points="83.45 441.27 77.7 442.58 58.97 465.4 58.82 471.1"/>
    <polyline class="cls-8" points="95.94 451.6 96.72 447.56 87.12 439.69 83.44 441.19"/>
    <polyline class="cls-8" points="59.15 470.24 58.36 474.29 67.96 482.16 71.65 480.66"/>
    <polyline class="cls-8" points="441.45 494.77 443.17 487.43 431.94 447.13 426.86 441.92"/>
    <polyline class="cls-8" points="426.22 439.59 428.49 435.43 421.48 417.42 417.15 415.94"/>
    <polyline class="cls-8" points="442.55 539.87 446.12 535 445.84 504.37 442.29 499.72"/>
    <polyline class="cls-8" points="426.02 557.36 428.25 560.37 433.89 558.13 433.46 554.54"/>
    <polyline class="cls-8" points="420.54 542.76 417.88 545.89 422.39 557.23 426.33 557.66"/>
    <polyline class="cls-8" points="433.22 554.77 435.88 551.64 431.37 540.31 427.43 539.87"/>
    <polyline class="cls-8" points="114.94 508.4 119.21 512.98 356.43 461.07 361.26 454.27"/>
    <polyline class="cls-8" points="602.1 175.21 599.81 169.38 360.12 130.45 353.13 135.01"/>
    <polyline class="cls-8" points="293.08 67.38 288.84 73.6 284.78 115.23 287.64 121.93"/>
    <polyline class="cls-8" points="287.39 124.33 283.78 127.39 283.83 146.72 287.33 149.66"/>
    <polyline class="cls-8" points="308.32 24.91 303.23 28.16 292.45 56.84 294.08 62.45"/>
    <polyline class="cls-8" points="50.82 174.87 46.42 172.26 22.34 178.15 19.25 182.47"/>
    <polyline class="cls-8" points="53.74 190.61 56.27 187.87 53.74 175.79 50.53 174.76"/>
    <polyline class="cls-8" points="627.3 304.99 632.37 305.74 652.41 291.17 653.63 285.99"/>
    <polyline class="cls-8" points="619.04 292.04 617.72 295.48 624.44 305.43 627.77 305.13"/>
    <polyline class="cls-8" points="653.35 286.75 654.5 283.21 647.18 273.28 643.83 273.67"/>
    <polyline class="cls-8" points="603.08 236.29 608.14 233.25 637.46 236.78 641.51 240.79"/>
    <polyline class="cls-8" points="640.68 240.39 644.04 242.77 642.56 255.1 638.86 256.56"/>
  </g>
  <g>
    <polygon class="cls-4" points="718.76 99.69 718.76 192.49 707.49 246.36 696.95 413.75 686.42 246.53 675.15 192.67 675.15 99.86 680.07 49.01 693.45 13.3 700.53 13.3 713.85 48.82 718.76 99.69"/>
    <polygon class="cls-4" points="736.13 99.69 736.13 192.49 731.64 246.36 727.45 413.75 723.25 246.53 718.76 192.67 718.76 99.86 720.72 49.01 726.05 13.3 728.87 13.3 734.18 48.82 736.13 99.69"/>
    <polygon class="cls-4" points="779.74 99.69 779.74 192.49 768.47 246.36 757.93 413.75 747.4 246.53 736.13 192.67 736.13 99.86 741.05 49.01 754.43 13.3 761.51 13.3 774.83 48.82 779.74 99.69"/>
    <polygon class="cls-4" points="797.11 99.69 797.11 192.49 792.63 246.36 788.43 413.75 784.23 246.53 779.74 192.67 779.74 99.86 781.7 49.01 787.03 13.3 789.85 13.3 795.16 48.82 797.11 99.69"/>
    <g>
      <line class="cls-8" x1="680.07" y1="49.01" x2="681.07" y2="49.01"/>
      <line class="cls-5" x1="683.19" y1="49.01" x2="711.79" y2="49.01"/>
      <line class="cls-8" x1="712.85" y1="49.01" x2="713.85" y2="49.01"/>
    </g>
    <g>
      <line class="cls-8" x1="741.05" y1="49.35" x2="742.05" y2="49.35"/>
      <line class="cls-5" x1="744.17" y1="49.35" x2="772.77" y2="49.35"/>
      <line class="cls-8" x1="773.83" y1="49.35" x2="774.83" y2="49.35"/>
    </g>
    <g>
      <line class="cls-8" x1="720.62" y1="49.01" x2="721.62" y2="49.01"/>
      <line class="cls-1" x1="723.95" y1="49.01" x2="732.11" y2="49.01"/>
      <line class="cls-8" x1="733.27" y1="49.01" x2="734.27" y2="49.01"/>
    </g>
    <g>
      <line class="cls-8" x1="781.6" y1="49.01" x2="782.6" y2="49.01"/>
      <line class="cls-1" x1="784.93" y1="49.01" x2="793.09" y2="49.01"/>
      <line class="cls-8" x1="794.25" y1="49.01" x2="795.25" y2="49.01"/>
    </g>
    <g>
      <line class="cls-8" x1="676.44" y1="192.77" x2="677.44" y2="192.77"/>
      <line class="cls-6" x1="679.46" y1="192.77" x2="795.11" y2="192.77"/>
      <line class="cls-8" x1="796.11" y1="192.77" x2="797.11" y2="192.77"/>
    </g>
    <g>
      <line class="cls-8" x1="747.47" y1="246.36" x2="748.47" y2="246.36"/>
      <line class="cls-7" x1="750.57" y1="246.36" x2="766.35" y2="246.36"/>
      <line class="cls-8" x1="767.4" y1="246.36" x2="768.4" y2="246.36"/>
    </g>
    <g>
      <line class="cls-8" x1="784.23" y1="246.36" x2="785.23" y2="246.36"/>
      <line class="cls-2" x1="787.36" y1="246.36" x2="790.56" y2="246.36"/>
      <line class="cls-8" x1="791.63" y1="246.36" x2="792.63" y2="246.36"/>
    </g>
    <g>
      <line class="cls-8" x1="686.23" y1="246.36" x2="687.23" y2="246.36"/>
      <line class="cls-7" x1="689.33" y1="246.36" x2="705.11" y2="246.36"/>
      <line class="cls-8" x1="706.16" y1="246.36" x2="707.16" y2="246.36"/>
    </g>
    <g>
      <line class="cls-8" x1="722.99" y1="246.36" x2="723.99" y2="246.36"/>
      <line class="cls-2" x1="726.12" y1="246.36" x2="729.32" y2="246.36"/>
      <line class="cls-8" x1="730.39" y1="246.36" x2="731.39" y2="246.36"/>
    </g>
    <polyline class="cls-8" points="675.38 99.71 669.1 100.91 669.17 190.48 675.73 192.73"/>
    <polyline class="cls-8" points="680.07 49.53 673.56 51.48 669.21 95.47 675.37 99.71"/>
    <polyline class="cls-8" points="693.22 13.3 686.64 12.93 674.63 44.47 679.78 49.35"/>
    <polyline class="cls-8" points="674.9 192.75 669.29 196.71 678.68 243.31 685.87 245.83"/>
    <polyline class="cls-8" points="685.88 246.36 680.12 252.61 696.95 413.75"/>
  </g>
</svg>