<?xml version="1.0" encoding="UTF-8"?>
<svg id="Layer_3" data-name="Layer 3" xmlns="http://www.w3.org/2000/svg" viewBox="0 0 841.89 595.28">
  <defs>
    <style>
      .cls-1, .cls-2, .cls-3 {
        fill: #fff;
      }

      .cls-1, .cls-2, .cls-3, .cls-4, .cls-5 {
        stroke-miterlimit: 10;
      }

      .cls-1, .cls-2, .cls-4, .cls-5 {
        stroke: #231f20;
      }

      .cls-1, .cls-5 {
        stroke-width: .5px;
      }

      .cls-3 {
        stroke: #fff;
      }

      .cls-4, .cls-5 {
        fill: none;
      }
    </style>
  </defs>
  <path class="cls-2" d="M537.6,547.79s1.82,38.34,3.88,23.84c2.59-18.29,2.43-24.06,2.43-24.06"/>
  <path class="cls-2" d="M297.26,547.79s1.82,38.34,3.88,23.84c2.59-18.29,2.43-24.06,2.43-24.06"/>
  <line class="cls-5" x1="393.69" y1="128.11" x2="443.64" y2="128.11"/>
  <path class="cls-1" d="M393.7,120.84s5.14-3.54,5.14,6.27-4.96,16.63-4.96,16.63"/>
  <path class="cls-1" d="M443.82,121.15s-5.28-3.33-4.88,6.48c.4,9.81,5.64,16.42,5.64,16.42"/>
  <path class="cls-4" d="M444.68,146.15s4.1,4.81,43.96,15.5c45.62,12.23,230.08,20.32,269.28,30.48,39.19,10.16,50.08,29.76,0,45.73-50.08,15.97-336.79,74.03-336.79,74.03"/>
  <line class="cls-5" x1="443.64" y1="211.95" x2="735.84" y2="221.69"/>
  <polyline class="cls-5" points="618.97 271.32 618.97 244.81 434.81 271.16"/>
  <path class="cls-3" d="M519.12,295.79s3.69-24.22,5.03-67.68-11.22-64.48-11.22-64.48l55.81,4.6s-11.15,25.13-11.15,61.48c0,38.63,5.2,56.41,5.2,56.41l-43.68,9.67Z"/>
  <line class="cls-5" x1="397.37" y1="211.41" x2="105.16" y2="221.15"/>
  <polyline class="cls-5" points="222.04 271.9 222.04 245.4 407.31 271.9"/>
  <path class="cls-4" d="M421.13,311.9s-26.77-41.39-27.44-183.79c-.68-145.01,48.93-138.23,50.69,3.06s-23.25,180.73-23.25,180.73Z"/>
  <path class="cls-4" d="M393.97,147.28s-15.59,9.49-44.63,15.95c-46.1,10.26-230.08,20.32-269.28,30.48-39.19,10.16-50.08,29.76,0,45.73,50.08,15.97,341.07,72.45,341.07,72.45"/>
  <path class="cls-4" d="M569.25,167.3c.14-9.51,0-16.78-.46-21.15-5.89-55.11-28.42-77.08-28.42-77.08,0,0-23.79,25.99-27.75,77.08-.32,4.18-.48,9.79-.48,16.58"/>
  <path class="cls-4" d="M518.34,292.06c6.02,87.5,14.94,183.11,16.19,204.07,1.03,17.4,12.01,19.81,13.46-.17.85-11.7,8.74-118.08,15.17-211.56"/>
  <path class="cls-2" d="M299.21,69.07s-23.79,25.99-27.75,77.08c-3.96,51.09,20.44,312.32,20.05,348.78-.11,10.38,17.15,19.01,16.1-.97s24.35-307.27,20.02-347.81c-5.89-55.11-28.42-77.08-28.42-77.08Z"/>
  <line class="cls-4" x1="528.51" y1="87.41" x2="552.6" y2="87.41"/>
  <line class="cls-4" x1="523.62" y1="98.11" x2="557.06" y2="98.11"/>
  <polyline class="cls-4" points="518.73 112.2 523.62 114.23 512.16 158.75"/>
  <polyline class="cls-4" points="562.73 112.2 557.84 114.23 569.3 158.75"/>
  <line class="cls-5" x1="540.56" y1="98.11" x2="540.56" y2="189.33"/>
  <line class="cls-5" x1="515.61" y1="145.36" x2="565.64" y2="145.36"/>
  <path class="cls-4" d="M512.14,162.73s12.86,20.89,11.48,64.05c-1.37,43.16-5.15,67.22-5.15,67.22"/>
  <path class="cls-4" d="M569.25,167.3s-11.41,24.96-11.41,61.07c0,38.37,5.32,56.04,5.32,56.04"/>
  <polyline class="cls-5" points="514.39 189.33 521.31 191.28 561.86 191.28 569.25 189.33"/>
  <rect class="cls-5" x="527.75" y="195.15" width="4.54" height="4.79"/>
  <path class="cls-5" d="M530.02,224.76s-3.3-5.31-2.27-13.35h3.94s.77,9.93-1.67,13.35Z"/>
  <path class="cls-5" d="M535.11,239.31s-5.14-1.88-7.36,10.61c-2.23,12.5-1.71,9.59-1.71,9.59"/>
  <rect class="cls-5" x="549.69" y="194.85" width="4.54" height="4.79"/>
  <path class="cls-5" d="M551.96,224.47s3.3-5.31,2.27-13.35h-3.94s-.77,9.93,1.67,13.35Z"/>
  <path class="cls-5" d="M546.87,239.02s5.14-1.88,7.36,10.61,1.71,9.59,1.71,9.59"/>
  <polyline class="cls-5" points="555.99 191.28 555.99 259.51 546.23 259.51 546.23 200.79 543.5 200.79 544.91 196.03 537.16 196.03 538.53 200.79"/>
  <polyline class="cls-5" points="543.5 200.79 543.5 206.12 538.53 206.12 538.53 200.79 535.79 200.79 535.79 259.51 526.04 259.51 526.04 191.28"/>
  <path class="cls-5" d="M368.78,157.94s-2.14,8.03,7.66,13.19,9,20.61,14.96,28.81l5.96,8.2"/>
  <path class="cls-5" d="M471.2,157s2.14,8.03-7.66,13.19c-9.8,5.16-9,20.61-14.96,28.81l-5.96,8.2"/>
  <line class="cls-5" x1="105.16" y1="189.33" x2="105.16" y2="246.55"/>
  <line class="cls-5" x1="105.16" y1="235.02" x2="222.04" y2="255.77"/>
  <polyline class="cls-5" points="368.59 266.36 368.59 275.47 380.25 287.13 380.25 268.03"/>
  <polyline class="cls-5" points="401.85 271.12 401.85 284.4 410.01 284.4"/>
  <polyline class="cls-5" points="253.67 249.51 253.67 258.65 268.19 260.67 268.19 252"/>
  <polygon class="cls-5" points="205.72 243.58 205.72 249.51 218.95 251.85 218.95 245.4 205.72 243.58"/>
  <rect class="cls-2" x="259.79" y="489.93" width="322.67" height="57.63" rx="17.6" ry="17.6"/>
  <polyline class="cls-5" points="410.01 314.2 410.01 333.77 212.34 333.77"/>
  <path class="cls-5" d="M233.79,349.26s-157.72-47.55-161.04-5.53c-3.32,42.02,161.04,5.53,161.04,5.53Z"/>
  <line class="cls-5" x1="546.87" y1="294" x2="597.99" y2="294"/>
  <polyline class="cls-5" points="572.43 294 572.43 323.99 606.32 323.99"/>
  <path class="cls-5" d="M717.41,333.77s-101.73-19.9-103.94,0c-2.21,19.9,103.94,0,103.94,0Z"/>
  <line class="cls-5" x1="757.92" y1="237.86" x2="757.92" y2="276.75"/>
  <path class="cls-5" d="M826.89,284.4s-55.29-13.99-56.39,0c-1.11,13.99,56.39,0,56.39,0Z"/>
  <line class="cls-5" x1="419.2" y1="481.95" x2="419.2" y2="467.57"/>
  <path class="cls-5" d="M464.19,448.77s-3.48-.72-8.47-1.54c-12.53-2.06-34.56-4.79-34.6,1.54-.06,8.85,43.07,0,43.07,0Z"/>
  <line class="cls-5" x1="448.98" y1="440.18" x2="456.29" y2="447.49"/>
  <path class="cls-5" d="M444.2,437.48s4.54-4.04,10.6,0c6.06,4.04-14.4,3.54-10.6,0Z"/>
  <line class="cls-5" x1="451.99" y1="440.51" x2="459.29" y2="447.82"/>
  <line class="cls-5" x1="448.98" y1="457.28" x2="456.29" y2="449.97"/>
  <path class="cls-5" d="M444.2,459.98s4.54,4.04,10.6,0-14.4-3.54-10.6,0Z"/>
  <line class="cls-5" x1="451.99" y1="456.95" x2="459.29" y2="449.64"/>
  <polygon class="cls-5" points="231.79 191.28 264.76 189.33 264.76 203.27 231.79 205.44 231.79 191.28"/>
  <circle class="cls-5" cx="372.58" cy="206.3" r="1.84"/>
  <circle class="cls-5" cx="392.19" cy="233.3" r="2.71"/>
  <circle class="cls-5" cx="153.85" cy="208.01" r="2.56"/>
  <ellipse class="cls-5" cx="57.5" cy="215.4" rx="1.26" ry="3.99"/>
  <polyline class="cls-5" points="332.62 489.93 323.8 518.75 332.62 547.57"/>
  <polyline class="cls-5" points="507.15 489.93 515.98 518.75 507.15 547.57"/>
  <rect class="cls-5" x="403.73" y="504.56" width="9.11" height="4.25"/>
  <rect class="cls-5" x="419.2" y="511.54" width="3.36" height="13.06"/>
  <rect class="cls-5" x="428.63" y="504.56" width="10.32" height="4.25"/>
  <path class="cls-2" d="M512.14,346.9h15.46s7.5,12.16,5.69,29.23-5.57,35.22-5.57,35.22c0,0-1.67-11.68-8.14-11.42l-6.47.26s-12.29-28.45-.97-53.29Z"/>
  <line class="cls-5" x1="510.08" y1="352.22" x2="530.1" y2="352.22"/>
  <line class="cls-5" x1="507.35" y1="369.56" x2="532.9" y2="362.53"/>
  <line class="cls-5" x1="509.04" y1="386.42" x2="532.74" y2="380.95"/>
  <circle class="cls-5" cx="527.25" cy="369.89" r="1.51"/>
  <circle class="cls-5" cx="525.37" cy="359.72" r="1.02"/>
  <path class="cls-2" d="M569.42,346.9h-15.46s-7.5,12.16-5.69,29.23c1.81,17.07,5.57,35.22,5.57,35.22,0,0,1.67-11.68,8.14-11.42l6.47.26s12.29-28.45.97-53.29Z"/>
  <line class="cls-5" x1="571.45" y1="352.22" x2="551.43" y2="352.22"/>
  <line class="cls-5" x1="574.22" y1="369.56" x2="548.67" y2="362.53"/>
  <line class="cls-5" x1="572.53" y1="386.42" x2="548.83" y2="380.95"/>
  <circle class="cls-5" cx="554.32" cy="369.89" r="1.51"/>
  <circle class="cls-5" cx="556.2" cy="359.72" r="1.02"/>
  <line class="cls-5" x1="735.98" y1="188.21" x2="735.98" y2="243.9"/>
  <line class="cls-5" x1="735.84" y1="235.57" x2="618.97" y2="256.31"/>
  <polyline class="cls-5" points="472.42 265.78 472.42 274.89 460.76 286.55 460.76 267.45"/>
  <polyline class="cls-5" points="440.28 270.54 440.28 283.82 432.12 283.82"/>
  <polyline class="cls-5" points="587.34 248.92 587.34 258.07 572.82 260.09 572.82 251.41"/>
  <polygon class="cls-5" points="635.28 244.13 635.28 250.05 622.05 252.39 622.05 245.94 635.28 244.13"/>
  <polygon class="cls-5" points="609.22 191.82 576.24 189.87 576.24 203.81 609.22 205.98 609.22 191.82"/>
  <circle class="cls-5" cx="468.42" cy="206.84" r="1.84"/>
  <circle class="cls-5" cx="448.82" cy="233.84" r="2.71"/>
  <circle class="cls-5" cx="687.16" cy="208.55" r="2.56"/>
  <ellipse class="cls-5" cx="779.39" cy="215.1" rx="1.26" ry="3.99"/>
  <path class="cls-2" d="M270.93,345.49h15.46s7.5,12.16,5.69,29.23-5.57,35.22-5.57,35.22c0,0-1.67-11.68-8.14-11.42l-6.47.26s-12.29-28.45-.97-53.29Z"/>
  <line class="cls-5" x1="268.87" y1="350.81" x2="288.89" y2="350.81"/>
  <line class="cls-5" x1="266.14" y1="368.15" x2="291.68" y2="361.11"/>
  <line class="cls-5" x1="267.82" y1="385" x2="291.52" y2="379.53"/>
  <circle class="cls-5" cx="286.03" cy="368.47" r="1.51"/>
  <circle class="cls-5" cx="284.15" cy="358.3" r="1.02"/>
  <path class="cls-2" d="M328.21,345.49h-15.46s-7.5,12.16-5.69,29.23c1.81,17.07,5.57,35.22,5.57,35.22,0,0,1.67-11.68,8.14-11.42l6.47.26s12.29-28.45.97-53.29Z"/>
  <line class="cls-5" x1="330.24" y1="350.81" x2="310.22" y2="350.81"/>
  <line class="cls-5" x1="333" y1="368.15" x2="307.45" y2="361.11"/>
  <line class="cls-5" x1="331.31" y1="385" x2="307.62" y2="379.53"/>
  <circle class="cls-5" cx="313.1" cy="368.47" r="1.51"/>
  <circle class="cls-5" cx="314.99" cy="358.3" r="1.02"/>
  <path class="cls-5" d="M314.99,571.63s.72-5.87,1.54-14.28c2.06-21.13,4.79-58.25-1.54-58.32-8.85-.1,0,72.6,0,72.6Z"/>
  <path class="cls-1" d="M314.97,571.63s.71-4.1,1.53-9.96c2.06-14.74,4.78-40.65-1.53-40.7-8.82-.07,0,50.66,0,50.66Z"/>
  <line class="cls-1" x1="311.05" y1="541.28" x2="318.92" y2="541.28"/>
  <line class="cls-1" x1="314.99" y1="499.04" x2="314.99" y2="571.63"/>
  <path class="cls-5" d="M528.75,571.63s.72-5.87,1.54-14.28c2.06-21.13,4.79-58.25-1.54-58.32-8.85-.1,0,72.6,0,72.6Z"/>
  <path class="cls-1" d="M528.74,571.63s.71-4.1,1.53-9.96c2.06-14.74,4.78-40.65-1.53-40.7-8.82-.07,0,50.66,0,50.66Z"/>
  <line class="cls-1" x1="524.82" y1="541.28" x2="532.69" y2="541.28"/>
  <line class="cls-1" x1="528.75" y1="499.04" x2="528.75" y2="571.63"/>
  <line class="cls-1" x1="328.87" y1="535.34" x2="509.04" y2="535.34"/>
  <polyline class="cls-5" points="391.77 547.57 391.77 541.28 451.99 541.28 451.99 547.57"/>
  <line class="cls-5" x1="399.88" y1="51.66" x2="434.96" y2="51.66"/>
  <line class="cls-5" x1="415.96" y1="51.66" x2="415.96" y2="128.11"/>
  <line class="cls-5" x1="421.45" y1="51.66" x2="421.45" y2="128.11"/>
  <polygon class="cls-5" points="408.85 129.84 414.1 167.3 394.6 167.3 408.85 129.84"/>
  <polygon class="cls-5" points="430.13 129.84 424.88 167.3 444.38 167.3 430.13 129.84"/>
  <rect class="cls-5" x="419.07" y="287.13" width="4.06" height="14.32"/>
  <line class="cls-5" x1="413.04" y1="292.59" x2="428.72" y2="292.59"/>
  <line class="cls-5" x1="401.85" y1="247.23" x2="438.23" y2="247.23"/>
  <line class="cls-5" x1="408.75" y1="277.76" x2="432.64" y2="277.76"/>
  <line class="cls-5" x1="410.01" y1="247.23" x2="416.47" y2="277.76"/>
  <line class="cls-5" x1="430.71" y1="247.23" x2="424.25" y2="277.76"/>
  <polygon class="cls-5" points="413.24 140 425.7 140 422.58 167.07 417.38 167.07 413.24 140"/>
  <path class="cls-5" d="M439.15,186.62c3.34-6.45,0-18.11,0-18.11h-38.42s-3.45,8.74,0,18.11h38.42Z"/>
  <path class="cls-5" d="M439.15,204.2c3.34-6.45,0-18.11,0-18.11h-38.42s-3.45,8.74,0,18.11h38.42Z"/>
  <path class="cls-5" d="M420,204.2v39.65s-19.27-3.96-19.27-39.65"/>
  <path class="cls-5" d="M420.55,204.2v39.65s18.69-3.96,18.69-39.65"/>
  <line class="cls-4" x1="287.35" y1="87.41" x2="311.44" y2="87.41"/>
  <line class="cls-4" x1="282.46" y1="98.11" x2="316.28" y2="98.11"/>
  <polyline class="cls-4" points="277.57 112.2 282.46 114.23 271 158.75"/>
  <polyline class="cls-4" points="321.57 112.2 316.68 114.23 328.14 158.75"/>
  <line class="cls-5" x1="299.39" y1="98.11" x2="299.39" y2="189.33"/>
  <line class="cls-5" x1="274.44" y1="145.36" x2="324.48" y2="145.36"/>
</svg>