<?xml version="1.0" encoding="UTF-8"?>
<svg xmlns="http://www.w3.org/2000/svg" viewBox="0 0 841.89 595.28">
  <defs>
    <style>
      .cls-1, .cls-2, .cls-3, .cls-4, .cls-5 {
        stroke: #231f20;
      }

      .cls-1, .cls-2, .cls-3, .cls-4, .cls-5, .cls-6 {
        stroke-miterlimit: 10;
      }

      .cls-1, .cls-3, .cls-5, .cls-6 {
        fill: none;
      }

      .cls-1, .cls-4 {
        stroke-width: .75px;
      }

      .cls-2, .cls-4, .cls-7 {
        fill: #fff;
      }

      .cls-7 {
        stroke-width: 0px;
      }

      .cls-5, .cls-6 {
        stroke-width: .5px;
      }

      .cls-6 {
        stroke: #221f20;
      }
    </style>
  </defs>
  <g id="Layer_5" data-name="Layer 5">
    <path class="cls-7" d="M378.93,215.02s33.56-5.12,39.95-13.56,59.78-12.23,59.78-12.23l62.03-3.74,31.72-5.84,20.03,59.23s-163.78,35.16-172.53,35.38-44.1-21.47-44.07-34.45,3.09-24.79,3.09-24.79Z"/>
  </g>
  <g id="Layer_4" data-name="Layer 4">
    <g>
      <path class="cls-3" d="M374.23,280.2s62.78,25.69,70.88,31.71c8.1,6.02,8.08,14.24,8.08,14.24,0,0,128.06,36.3,138,19.67,9.94-16.63-6.16-29.2-31.53-42s-87.39-31.37-87.39-31.37c0,0-17.78-15.1-35.27-15.35-17.49-.25-52.92,9.59-52.92,9.59,0,0-7.76,5.87-9.86,13.51Z"/>
      <path class="cls-3" d="M507.83,239.75s15.73-15.78-14.53-27.39c-30.26-11.61-63.14-3.99-63.14-3.99l-1.77,2.46-160.2-64.16s277.75,42.06,295.01,44.91c17.26,2.85,26.83,12.52,26.83,12.52,0,0,21.89,20.61,20.11,25.96-2.32,6.97-25.66,16.25-25.66,16.25,0,0-13.85,6.22-32.81,2.28-18.95-3.94-43.84-8.86-43.84-8.86Z"/>
      <path class="cls-3" d="M590.03,204.11s-13.21,3.64-16.12,18.03c-4.57,22.59,7.9,25.17,7.9,25.17"/>
      <path class="cls-3" d="M459.13,175.68s106.83-127.84,120.6-139.21,28.12-20.32,35.43-18.46c7.31,1.86,9.44,9.56,1.36,22.45-8.08,12.9-81.78,146.71-81.78,146.71"/>
      <line class="cls-3" x1="428.39" y1="210.84" x2="384.09" y2="266.69"/>
      <path class="cls-3" d="M374.23,280.2l-44.82,62.06s77.71,18.69,103.27,32.09,46.95,32.47,45.07,41.77c-1.98,9.77-43.03,18.75-51,17.41-7.96-1.34-57.2-21.17-57.2-21.17l7.24-5.95s-.84-28.44-71.11-29.74l-3.91,4.42-159.88-88.85,187.51,50.01"/>
      <path class="cls-3" d="M507.83,239.75s-20.36,31.62-19.29,37.75"/>
      <path class="cls-3" d="M453.2,326.15s-9.37,6.23-17.23,14.83c-7.86,8.6-22.88,24.3-22.88,24.3"/>
      <path class="cls-3" d="M301.79,381.09s-98.44,141.56-107.11,157.72c-8.68,16.16-8.76,24.93-3.83,28.97,4.93,4.04,19.36,7.63,35.31-6.72,15.94-14.36,143.41-148.7,143.41-148.7"/>
      <path class="cls-3" d="M456.76,389.69s-13.68,3.87-16.8,19.33c-3.13,15.47,5.25,22.18,5.25,22.18"/>
      <path class="cls-3" d="M402.93,200.76s-2.59,3.5-5.93,2.05-7.21-9.62-6.49-13.95c.72-4.32,3.26-5.34,3.26-5.34,0,0-7.87-6.33-14.54-7.68-6.67-1.35-25.13.92-25.13.92,0,0,.86,1.21,4.4,8.86,3.54,7.65,26.02,19.74,38.5,17.18"/>
      <path class="cls-3" d="M369.38,162.09s11.33-3.4,23.49-1.69c12.16,1.72,19.27,4.52,20.82,5.45,1.55.93,2.55,3.33,2.55,3.33"/>
      <path class="cls-3" d="M243.15,319.24s6.75-2.86,19.49-.4,26.93,6.8,29.77,13.53"/>
      <path class="cls-2" d="M273.9,365.6c-4.98,2.78-9.92-.5-12.56-4.9-2.64-4.39,3.29-12.46,3.29-12.46,0,0-7.21-8.51-16.19-10.44-8.98-1.93-22.63-3.14-22.63-3.14,0,0,2.39,1.81,4.5,9.4,2.1,7.59,12.49,15.09,17.2,17.7,4.71,2.61,16.04,7.1,20.43,6.67,4.39-.44,5.97-2.83,5.97-2.83Z"/>
      <path class="cls-6" d="M581.72,34.85s29.39-.25,32.88,1.33l3.5,1.59"/>
      <polyline class="cls-6" points="591.19 34.86 523.65 120.48 505.29 120.9"/>
      <polyline class="cls-6" points="525.08 97.67 527.6 98.18 541.76 81.99 539.04 81.44"/>
      <line class="cls-6" x1="603.67" y1="35.1" x2="502.54" y2="182.28"/>
      <line class="cls-6" x1="547.46" y1="90.3" x2="564.84" y2="91.61"/>
      <line class="cls-6" x1="443.5" y1="257.82" x2="478.19" y2="208.37"/>
      <line class="cls-6" x1="482.76" y1="209.29" x2="448.67" y2="259.19"/>
      <line class="cls-6" x1="451.21" y1="205.99" x2="410.98" y2="260.34"/>
      <line class="cls-6" x1="391.04" y1="287.18" x2="348.34" y2="347.03"/>
      <line class="cls-6" x1="376.15" y1="354.79" x2="419.98" y2="299.99"/>
      <line class="cls-6" x1="370.09" y1="353.57" x2="415.04" y2="297.43"/>
      <path class="cls-6" d="M192.83,542.41s29.39,8.36,33.32,18.65"/>
      <polyline class="cls-6" points="260.4 440.93 275.71 445.82 201.15 545.16"/>
      <line class="cls-6" x1="350.36" y1="383.08" x2="215.28" y2="551.38"/>
      <line class="cls-6" x1="249.05" y1="481.33" x2="265.91" y2="488.3"/>
      <polyline class="cls-6" points="240.51 469.9 244.17 471.9 230.19 491.57 227.14 489.51"/>
      <polygon class="cls-6" points="350.08 397.33 341.67 408.1 348.95 412.35 358 401.1 350.08 397.33"/>
      <path class="cls-6" d="M402.83,262.06s-9.98,4.22-9.13,11.95,5.77,13.08,12.87,16.31c7.1,3.23,36.61,16.41,46.62,14.83,10.01-1.58,18.8-14.62,21.52-20.14,2.97-6.04,3.86-7.6-2.43-12.55"/>
      <path class="cls-3" d="M173.92,300.78s-3.53-7.69-24.28-23.6c-20.76-15.91-31.13-13.1-17.56,5.99,13.58,19.09,44.81,42.47,50.84,41.39s5.56-6.43,5.56-6.43"/>
      <path class="cls-3" d="M301.46,151.82s-35.14-43.16-44.16-38.06c-9.02,5.1,5.82,31.81,10.93,38.17,5.11,6.36,2.06,4.15,2.06,4.15"/>
      <path class="cls-3" d="M293.1,170.96s8.28,10.72,13.95,5.06c5.67-5.65,2.47-12.23,2.47-12.23"/>
      <path class="cls-4" d="M161.2,286.69l114.42-136.32,27.25,10.79-118.81,142.33-10.58-3.48s-7.77-10.63-12.28-13.32Z"/>
      <path class="cls-4" d="M145.84,303.46l-6.09,5.56c-2.64,2.41-4.63,5.49-5.51,8.95-.78,3.07-.78,6.62,1.88,9.24,5.79,5.72,16,3.36,23.42-.83,7.42-4.19,17.71-14.5,17.71-14.5l-25.06-13.93-6.35,5.5Z"/>
      <path class="cls-5" d="M308.08,152.82l7.31-10.79s4.58-9.21-2.23-14.34-17.09.65-19.83,2.94-5.39,5.28-5.39,5.28"/>
      <path class="cls-5" d="M422.96,258.26s-10.6,4.93-11.75,15.85c-1.14,10.92,5.16,20.51,5.16,20.51"/>
      <path class="cls-5" d="M437.01,257.1c-4.08,1.35-9.85,6.8-11.96,12.78-2.17,6.15-.62,12.82-.62,12.82l-7.6-2.68s-2.25-2.87-1.17-9.09c1.22-7,7.72-12.93,12.4-13.32"/>
      <path class="cls-5" d="M450.88,259.96c-3.87,1.27-8.54,5.47-11.41,10.08-3.74,6-3.03,12.89-3.03,12.89l-3.1,2.64-6.19-1.77s-1.48-5.7.79-12.82c1.31-4.13,3.79-7.58,7.72-10.59,1.49-1.14,4.39-2.34,6.13-2.88"/>
      <polygon class="cls-6" points="448.83 265.12 442.58 273.85 469.33 286.47 474.91 278.83 448.83 265.12"/>
      <path class="cls-6" d="M439.15,279.33l-.28,4.55-5.51,3.94-.56,9.43s14.29,5.39,20.03,4.74,15.04-11.65,15.04-11.65l-28.72-11Z"/>
      <polygon class="cls-6" points="527.07 177.86 534.3 166.27 526.62 162.81 518.8 174.94 527.07 177.86"/>
      <path class="cls-7" d="M241.01,149.76s40.85,1.77,50.47-6.97c9.62-8.75,73.52-.63,73.52-.63l74.09,10.24,33.3,4.27,14.6,73.04s-201.84,3.73-212.23,1.91-46.74-36.64-43.51-52.43c3.23-15.79,9.75-29.43,9.75-29.43Z"/>
      <path class="cls-2" d="M364.42,233.03s-17.59-65.51-17.71-75.6c-.12-10.09,6.43-15.06,6.43-15.06,0,0-48.7-123.87-67.95-121.71-19.25,2.17-19.5,22.59-14.32,50.53,5.18,27.94,27.99,88.53,27.99,88.53,0,0-1.25,23.29,9.15,37.36,10.4,14.07,39.69,36.29,39.69,36.29,0,0,9.37,2.62,16.72-.34Z"/>
      <path class="cls-2" d="M285.49,330.54c-40.94-74.8-100.71-184.09-106.05-194.17-8.19-15.46-6.29-28.93-6.29-28.93,0,0,3.14-29.9,8.47-31.73,6.95-2.38,28.48,10.57,28.48,10.57,0,0,13.34,7.25,21.69,24.72,8.35,17.46,19.51,40.25,19.51,40.25,0,0-22.08-2.95-12.99,28.15,9.09,31.1,35.08,52.65,35.08,52.65l3.03-.08,28.99,103.17"/>
      <path class="cls-3" d="M173.15,107.44s10.9,8.3,24.11,1.91c20.75-10.05,15.24-21.54,15.24-21.54"/>
      <path class="cls-2" d="M229.26,228.78s-165.85-7.52-183.24-11.58c-17.38-4.07-33.2-10.07-36.15-17.01-2.95-6.94,1.88-13.3,17.04-14.68,15.16-1.38,165.14-23.72,165.14-23.72"/>
      <line class="cls-3" x1="276.43" y1="231.96" x2="347.7" y2="233.37"/>
      <path class="cls-2" d="M364.42,233.03l76.52-1.94s-32.21-73.15-37.03-101.6c-4.82-28.45-2.61-57.03,5.92-61.16,8.97-4.35,40.99,22.88,44.75,30.02,3.76,7.14,17.81,58.33,17.81,58.33l-9.12-2.16s-22.12,17.9,19.42,74.59l5.89.43,26.17,181.03-73.81-179.47"/>
      <path class="cls-3" d="M251.3,151.24s37.5-2.96,41.72-7.53"/>
      <path class="cls-3" d="M351.7,143.06s10.88,3.56,22.79,4.45c11.92.89,34.08,3.05,34.08,3.05"/>
      <path class="cls-2" d="M488.59,229.54s172.26-7.45,190.37-10.34c18.11-2.89,25.14-8.14,25.37-14.51.23-6.37-5.66-20.03-26.74-24.02-21.08-3.99-205.19-24.01-205.19-24.01"/>
      <path class="cls-3" d="M401.54,101.04s11.36,8.54,25.56,1.65c14.2-6.88,14.46-17.62,14.46-17.62"/>
      <path class="cls-2" d="M283.84,258.32s4.35-.06,5.23,3.48c.88,3.54-3.29,11.56-7.17,13.61s-6.22.64-6.22.64c0,0-.27,10.09,2.7,16.22,2.97,6.13,15.96,19.44,15.96,19.44,0,0,.44-1.42,4.38-8.87,3.94-7.45-.06-32.66-9.66-41.04"/>
      <path class="cls-3" d="M273.4,308.44s-9.57-6.95-15.57-17.66c-6-10.71-8.08-18.07-8.28-19.86-.2-1.79,1.11-4.05,1.11-4.05"/>
      <path class="cls-2" d="M473.94,313.46s-6.37-3.64-12.12-15.26c-5.75-11.62-10.9-25.55-7.27-31.89"/>
      <path class="cls-2" d="M494.29,261.7c5.23,2.28,4.48,7.61,2.58,12.37-1.9,4.76-11.9,4.93-11.9,4.93,0,0-2.41,10.89,1.5,19.21,3.91,8.31,11.21,19.91,11.21,19.91,0,0-.01-3,4.75-9.27,4.77-6.27,4.44-19.08,3.66-24.41s-4.07-17.07-7.08-20.29-4.73-2.44-4.73-2.44Z"/>
      <path class="cls-6" d="M43.52,216.59s-18-23.23-18.86-26.97l-.86-3.74"/>
      <polyline class="cls-6" points="37.79 209.06 146.84 210.91 158.29 225.27"/>
      <polyline class="cls-6" points="127.81 223.59 126.69 221.28 105.24 219.83 106.45 222.32"/>
      <line class="cls-6" x1="30.43" y1="198.98" x2="208.78" y2="190.27"/>
      <line class="cls-6" x1="108.39" y1="210.26" x2="98.91" y2="195.63"/>
      <line class="cls-6" x1="304.66" y1="191.47" x2="244.29" y2="193.83"/>
      <line class="cls-6" x1="242.26" y1="189.64" x2="302.61" y2="186.53"/>
      <line class="cls-6" x1="258.75" y1="216.74" x2="326.36" y2="215.82"/>
      <line class="cls-6" x1="359.79" y1="215.43" x2="433.28" y2="213.14"/>
      <line class="cls-6" x1="422.61" y1="186.31" x2="352.45" y2="184.63"/>
      <line class="cls-6" x1="425.31" y1="191.87" x2="353.41" y2="190.12"/>
      <path class="cls-6" d="M682.94,218.49s-11.16-28.45-5.35-37.81"/>
      <polyline class="cls-6" points="561.27 226.21 555.88 211.07 680.09 210.21"/>
      <line class="cls-6" x1="460.74" y1="189.69" x2="676.47" y2="195.19"/>
      <line class="cls-6" x1="600.28" y1="210.76" x2="595.61" y2="193.13"/>
      <polyline class="cls-6" points="596.37 224.48 595.73 220.36 619.86 219.57 620.07 223.24"/>
      <polygon class="cls-6" points="472.25 181.27 485.91 181.44 484.88 173.08 470.45 172.69 472.25 181.27"/>
      <path class="cls-6" d="M332.66,221.26s9.4,5.38,15.04.03c5.64-5.35,6.91-12.51,5.18-20.12-1.73-7.61-9.12-39.07-16.45-46.08-7.33-7-23.02-6.1-29.06-4.91-6.6,1.3-8.39,1.53-8.51,9.54"/>
      <path class="cls-3" d="M502.16,379.92s-3.98,7.46-4.07,33.62c-.08,26.15,8.44,32.71,15.4,10.34,6.96-22.37,6.64-61.38,2.13-65.52s-8.49-.53-8.49-.53"/>
      <path class="cls-1" d="M413.72,366.43l84.44,3.78,3.64,10.53s-3.75,12.63-3.15,17.84l-32.87-1.56"/>
      <path class="cls-4" d="M521.3,400.64l8.11,1.48c3.51.64,7.17.36,10.46-1.04,2.91-1.24,5.73-3.39,6.21-7.09,1.04-8.07-7.02-14.76-14.84-18.13-7.82-3.36-22.26-5.31-22.26-5.31l4.1,28.37,8.22,1.71Z"/>
      <path class="cls-5" d="M282.53,371.18c-.7,1.26-1.14,2.76-1.14,4.56.04,8.53,10.87,13.21,14.35,14"/>
      <path class="cls-5" d="M317.45,207.55s10.35,5.45,19.73-.25,13.19-16.53,13.19-16.53"/>
      <path class="cls-5" d="M308.02,197.08c3.55,2.43,11.38,3.72,17.41,1.77,6.21-2,10.58-7.27,10.58-7.27l2.47,7.67s-.92,3.53-6.52,6.44c-6.31,3.27-14.96,1.69-18.11-1.79"/>
      <path class="cls-5" d="M301.89,184.3c3.36,2.3,9.52,3.48,14.93,2.97,7.04-.66,12.09-5.39,12.09-5.39l3.98.87,2.34,5.99s-3.64,4.63-10.68,7.14c-4.08,1.46-8.32,1.57-13.1.27-1.81-.49-4.52-2.07-6-3.13"/>
      <polygon class="cls-6" points="307.24 182.81 317.97 182.5 311.8 153.57 302.34 153.75 307.24 182.81"/>
      <path class="cls-6" d="M324.4,181.9l3.79-2.53,6.47,2,7.84-5.27s-4.37-14.63-8.37-18.81-18.38-4.91-18.38-4.91l8.65,29.52Z"/>
      <polygon class="cls-6" points="190.41 173.43 176.81 174.7 178.71 182.9 193.1 181.78 190.41 173.43"/>
    </g>
  </g>
  <g id="Layer_6" data-name="Layer 6">
    <polygon class="cls-7" points="704.83 235.31 707.56 199.13 646.79 217.69 641.03 251.98 704.83 235.31"/>
    <path class="cls-2" d="M495.3,389.99s-7.81-3.26-33.85-.86c-26.04,2.4-31.76,11.5-8.83,16.31,22.93,4.81,61.74.79,65.43-4.1,3.7-4.89-.28-8.5-.28-8.5"/>
    <path class="cls-2" d="M628.45,238.94s63.55-23.73,73.58-24.81c10.04-1.07,15.6,4.97,15.6,4.97,0,0,118.69-60.24,114.71-79.2-3.98-18.96-24.34-17.27-51.66-9.46-27.32,7.81-85.48,36.27-85.48,36.27,0,0-23.31.97-36.32,12.66-13.01,11.69-32.36,42.95-32.36,42.95,0,0-1.72,9.58,1.93,16.61Z"/>
    <path class="cls-2" d="M628.45,238.94l9.19,75.99s69.77-39,97.63-46.51c27.87-7.5,56.52-8.01,61.45.09,5.18,8.52-18.89,42.97-25.64,47.4s-56.37,23.27-56.37,23.27l1.28-9.28s-19.91-20.32-72.41,26.41l.13,5.9-177.73,43.23,171.66-90.51"/>
    <path class="cls-3" d="M717.64,219.11s-2.66,10.93-2.59,22.58c.07,11.65-.32,33.38-.32,33.38"/>
    <path class="cls-3" d="M643.71,362.22s23.76,170.77,28.35,188.53,10.49,24.26,16.85,23.88,19.4-7.53,21.37-28.9c1.97-21.36,4.43-206.54,4.43-206.54"/>
    <path class="cls-3" d="M763.37,263.36s-7.42,12.12.78,25.6c8.2,13.48,18.91,12.72,18.91,12.72"/>
    <path class="cls-2" d="M558.67,356.58s3.02-6.68,14.04-13.52c11.02-6.83,24.4-13.28,31.05-10.26"/>
    <path class="cls-2" d="M612.72,369.75c-1.77,5.43-7.63,6.36-12.55,4.93s-6.04-11.38-6.04-11.38c0,0-11.07-1.36-18.98,3.32-7.9,4.68-18.75,13.05-18.75,13.05,0,0,2.98-.3,9.68,3.85,6.7,4.15,19.41,2.61,24.65,1.33,5.23-1.28,16.6-5.67,19.53-8.97,2.93-3.3,2.46-6.13,2.46-6.13Z"/>
    <line class="cls-6" x1="645.54" y1="232.66" x2="654.78" y2="305.6"/>
    <line class="cls-6" x1="680.48" y1="292.44" x2="675.49" y2="222.44"/>
    <line class="cls-6" x1="675.21" y1="295.64" x2="670.13" y2="223.91"/>
    <path class="cls-6" d="M673.15,554.64s27.26-13.81,37.13-8.91"/>
    <polyline class="cls-6" points="653.92 434.26 668.48 427.45 681.13 551.02"/>
    <line class="cls-6" x1="680.74" y1="330.72" x2="695.73" y2="546"/>
    <line class="cls-6" x1="673" y1="471.62" x2="690.11" y2="465.3"/>
    <polyline class="cls-6" points="658.97 469.03 663.02 468.01 666.09 491.95 662.45 492.5"/>
    <polygon class="cls-6" points="690.21 341.37 691.34 354.99 699.56 353.16 698.58 338.77 690.21 341.37"/>
    <path class="cls-6" d="M637.15,206.21s-4.46,9.87,1.4,14.98c5.86,5.11,13.11,5.69,20.52,3.25,7.41-2.44,38.03-12.79,44.31-20.74,6.28-7.96,3.89-23.5,2.13-29.4-1.92-6.45-2.32-8.2-10.3-7.57"/>
    <path class="cls-5" d="M649.36,189.76s-4.44,10.82,2.12,19.61,17.71,11.56,17.71,11.56"/>
    <path class="cls-5" d="M658.89,179.38c-2.08,3.76-2.62,11.68-.11,17.5,2.58,5.99,8.24,9.84,8.24,9.84l-7.4,3.18s-3.6-.58-7.03-5.88c-3.86-5.97-3.1-14.73.07-18.2"/>
    <polygon class="cls-6" points="673.02 177.25 674.35 187.9 702.56 179.02 701.48 169.62 673.02 177.25"/>
    <path class="cls-6" d="M675.55,194.25l2.88,3.53-1.38,6.63,5.99,7.3s14.15-5.74,17.93-10.11c3.78-4.38,3.14-18.76,3.14-18.76l-28.56,11.41Z"/>
  </g>
</svg>