<?xml version="1.0" encoding="UTF-8"?>
<svg id="Layer_6" data-name="Layer 6" xmlns="http://www.w3.org/2000/svg" viewBox="0 0 841.89 595.28">
  <defs>
    <style>
      .cls-1 {
        fill: #fff;
      }

      .cls-1, .cls-2, .cls-3 {
        stroke: #231f20;
        stroke-miterlimit: 10;
      }

      .cls-1, .cls-3 {
        stroke-width: .5px;
      }

      .cls-2, .cls-3 {
        fill: none;
      }

      .cls-4 {
        opacity: .2;
      }
    </style>
  </defs>
  <g>
    <path class="cls-2" d="M425.9,266.79c-13.26.13-26.67,37.34-25.83,59.81.92,24.57,7.22,70.03,26.02,67.79,19.08-2.27,27.49-52.19,26.34-69.46-1.93-29.07-12.6-58.28-26.53-58.14Z"/>
    <path class="cls-2" d="M524.46,316.07s5.64,39.7,28.77,45.87c19.85,5.3,32.96-3.82,37.75-19.01,6.18-19.59-6.95-35.78-26.57-58.03-12.43-14.09-42.54-41.42-51.23-49.24-.79-.71-2.03-.02-1.86,1.03l13.14,79.38Z"/>
    <path class="cls-2" d="M327.58,316.36s-5.53,39.72-28.63,45.96c-19.84,5.36-32.97-3.72-37.81-18.9-6.24-19.57,6.84-35.8,26.4-58.11,12.4-14.15,42.5-41.61,51.12-49.42.78-.71,2.01-.03,1.84,1.01l-12.92,79.47Z"/>
    <path class="cls-2" d="M445.49,289.59s37.07,5.4,74.25-1.99"/>
    <path class="cls-2" d="M452.43,324.93s53.23-11.51,62.63-10.19,10.06,4.98,10.06,4.98"/>
    <path class="cls-2" d="M584.38,309.86s-.77-3.74,6.33-4.82,202.81-29.07,215.59-32.29,18.82-4.29,19.17-9.26c.35-4.97-28.43-3.51-58.26.09-29.84,3.6-190.75,21.3-196.78,21.31-6.03,0-8.59-2.81-8.59-2.81"/>
    <path class="cls-2" d="M406.83,289.32s-37.05,5.5-74.26-1.77"/>
    <path class="cls-2" d="M399.99,324.69s-53.26-11.35-62.66-10-10.05,5.01-10.05,5.01"/>
    <path class="cls-2" d="M268,310s.76-3.74-6.35-4.8-202.89-28.48-215.69-31.66c-12.79-3.18-18.83-4.24-19.2-9.21s28.42-3.59,58.26-.09,190.81,20.74,196.84,20.73c6.03,0,8.58-2.84,8.58-2.84"/>
    <line class="cls-2" x1="426.09" y1="394.39" x2="426.13" y2="423.08"/>
    <polyline class="cls-2" points="361.34 317.26 361.37 336.56 369.77 336.55 369.74 318.73"/>
    <polyline class="cls-2" points="490.12 317.07 490.15 336.38 481.74 336.39 481.72 318.57"/>
    <path class="cls-3" d="M416.74,275.48c-1.17,1.5-2.18,3.1-3.06,4.79-2.74,5.29-8.61,17.18-8.61,21.76,0,5.98,11.95-3.04,19.77-3.38s20.73,7.9,21.85,5.36c1.6-3.65-5.07-20.89-9.03-26.88-3.07-4.65-6.23-8.42-11.47-8.41-4.09,0-7.24,3.9-9.46,6.76Z"/>
    <path class="cls-3" d="M402.86,354.46s3.43-13.15,11.24-17.97c7.81-4.82,18.64-4.88,24.39-.04,5.75,4.84,10.76,19.26,10.76,19.26"/>
    <path class="cls-1" d="M326.64,256.96s-1.72,7.12.01,8.42,5.21,5.45,5.22,9.62c0,4.16-2.29,5.77-1.48,8.68s4.33,6.26,8.01,1.45c3.68-4.81,5.58-14.1,2.69-21.14-2.89-7.04-14.45-7.03-14.45-7.03Z"/>
    <path class="cls-1" d="M524.26,256.67s1.75,7.12.01,8.42c-1.73,1.3-5.2,5.47-5.19,9.63s2.3,5.77,1.51,8.68-4.31,6.28-8,1.48c-3.69-4.8-5.62-14.08-2.75-21.13,2.87-7.05,14.43-7.07,14.43-7.07Z"/>
    <path class="cls-1" d="M534.54,255.25s7.41-2.78,13.6,4.43c6.19,7.2,5.23,13.67,5.23,13.67l-18.84-18.1Z"/>
    <path class="cls-1" d="M317.57,255.72s-7.42-2.76-13.59,4.47c-6.17,7.22-5.19,13.69-5.19,13.69l18.78-18.15Z"/>
    <path class="cls-2" d="M516.7,238.84s.66-47.64-3.47-49.89c-4.13-2.24-1.93,46.41-1.93,46.41"/>
    <path class="cls-2" d="M516.74,235.36l24.12-.04s8.16.78,7.47,3.47c-.69,2.69-28.65,2.75-28.65,2.75"/>
    <path class="cls-2" d="M512.12,241.56s-79.8,2.57-96.12,3.01c-16.94.46-76.67-.53-76.67-.53"/>
    <path class="cls-2" d="M340.49,236.89s73.97-1.28,80.13-1.39c6.16-.11,90.67-.13,90.67-.13"/>
    <line class="cls-2" x1="422.49" y1="229.96" x2="422.52" y2="252.81"/>
    <path class="cls-2" d="M334.73,239.11s-.8-47.64,3.33-49.9,2.07,46.4,2.07,46.4"/>
    <path class="cls-2" d="M334.68,235.63l-24.12.04s-8.16.81-7.46,3.49,28.66,2.67,28.66,2.67"/>
    <path class="cls-3" d="M266.83,354.18s-7.63-14.03-.04-27.13c7.59-13.11,26.42-12.35,33.3-7,6.88,5.35,9.71,11.64,10.81,17.51s1.04,14.94-2.61,19.85"/>
    <path class="cls-3" d="M585.13,353.45s7.59-14.05-.04-27.13-26.46-12.27-33.32-6.9c-6.86,5.37-9.68,11.67-10.75,17.54s-1,14.94,2.67,19.84"/>
    <path class="cls-3" d="M580.72,304.56s.11-4.08,2.88-4.3c2.78-.22,198.1-27.62,198.1-27.62"/>
    <path class="cls-3" d="M754.77,265.03s21.83-.03,25.65,4.62c2.06,2.51,2.36,4.49.01,7.48"/>
    <path class="cls-3" d="M523.91,312.76s-1.78-2.46-7.1-2.79-64.83,9.54-64.83,9.54"/>
    <path class="cls-3" d="M271.24,304.05s-.12-4.08-2.89-4.29c-2.78-.21-198.18-27.04-198.18-27.04"/>
    <path class="cls-3" d="M97.07,265.04s-21.83.03-25.63,4.7c-2.06,2.52-2.34,4.49.01,7.48"/>
    <path class="cls-3" d="M328.07,312.09s1.78-2.47,7.1-2.82,64.86,9.35,64.86,9.35"/>
  </g>
  <g class="cls-4">
    <path class="cls-2" d="M418.86,265.73c-13.22,1.13-23.8,39.23-21.27,61.58,2.76,24.43,12.46,69.29,31.03,65.65,18.86-3.7,23.5-54.11,21.06-71.24-4.1-28.85-16.93-57.17-30.82-55.99Z"/>
    <path class="cls-2" d="M520.84,307.47s8.6,39.17,32.13,43.59c20.19,3.8,32.58-6.28,36.22-21.79,4.69-19.99-9.61-35.16-30.85-55.88-13.45-13.12-45.53-38.11-54.78-45.26-.84-.65-2.03.13-1.78,1.16l19.06,78.17Z"/>
    <path class="cls-2" d="M324.53,322.53s-2.53,40.02-25.1,47.98c-19.38,6.83-33.16-1.24-39.12-16.01-7.69-19.04,4.14-36.21,21.96-59.93,11.3-15.04,39.26-44.68,47.27-53.11.72-.76,2-.18,1.91.87l-6.92,80.21Z"/>
    <path class="cls-2" d="M440.11,286.99s37.37,2.6,73.9-7.55"/>
    <path class="cls-2" d="M449.68,321.71s52.22-15.47,61.68-14.86c9.47.61,10.41,4.21,10.41,4.21"/>
    <path class="cls-2" d="M580.12,296.79s-1.05-3.67,5.96-5.28c7-1.61,200.05-44.2,212.56-48.37s18.45-5.69,18.42-10.68c-.03-4.99-28.61-1.37-58.09,4.46-29.48,5.82-188.61,35.55-194.63,36.01-6.01.46-8.77-2.16-8.77-2.16"/>
    <path class="cls-2" d="M401.53,289.62s-36.54,8.27-74.18,3.81"/>
    <path class="cls-2" d="M397.36,325.4s-53.96-7.32-63.23-5.27-9.64,5.75-9.64,5.75"/>
    <path class="cls-2" d="M264.65,320.66s.47-3.79-6.69-4.31c-7.17-.52-204.46-13.18-217.45-15.39-13-2.21-19.1-2.81-19.83-7.74-.73-4.93,28.07-5.72,58.09-4.46,30.03,1.26,191.83,6.37,197.84,5.91,6.01-.46,8.34-3.47,8.34-3.47"/>
    <line class="cls-2" x1="428.62" y1="392.95" x2="430.82" y2="421.55"/>
    <polyline class="cls-2" points="358.27 320.9 359.74 340.14 368.12 339.5 366.76 321.73"/>
    <polyline class="cls-2" points="486.67 311.05 488.15 330.29 479.77 330.94 478.4 313.17"/>
    <path class="cls-3" d="M410.38,275.07c-1.05,1.59-1.94,3.26-2.69,5.01-2.33,5.48-7.3,17.78-6.95,22.35.46,5.96,11.69-3.93,19.46-4.85,7.77-.92,21.27,6.32,22.19,3.71,1.33-3.76-6.62-20.45-11.02-26.13-3.41-4.41-6.84-7.93-12.06-7.53-4.08.31-6.93,4.43-8.93,7.45Z"/>
    <path class="cls-3" d="M402.46,354.87s2.43-13.37,9.86-18.76c7.43-5.39,18.22-6.26,24.32-1.87,6.1,4.4,12.18,18.4,12.18,18.4"/>
    <path class="cls-1" d="M319.14,263.37s-1.19,7.23.64,8.39c1.83,1.16,5.61,5.05,5.93,9.2.32,4.15-1.85,5.93-.83,8.77s4.79,5.92,8.09.85c3.3-5.07,4.51-14.48,1.1-21.28-3.41-6.8-14.94-5.93-14.94-5.93Z"/>
    <path class="cls-1" d="M516.18,248.25s2.27,6.97.64,8.39c-1.63,1.43-4.77,5.84-4.45,10s2.73,5.58,2.15,8.54-3.83,6.58-7.87,2.07c-4.04-4.51-6.67-13.62-4.33-20.87s13.86-8.14,13.86-8.14Z"/>
    <path class="cls-1" d="M526.33,246.07s7.18-3.33,13.9,3.39c6.72,6.72,6.24,13.24,6.24,13.24l-20.14-16.63Z"/>
    <path class="cls-1" d="M310.01,262.81s-7.6-2.19-13.22,5.47c-5.61,7.66-4.15,14.04-4.15,14.04l17.37-19.51Z"/>
    <path class="cls-2" d="M507.31,231.04s-2.92-47.56-7.21-49.48,1.56,46.42,1.56,46.42"/>
    <path class="cls-2" d="M507.09,227.57l24.05-1.84s8.19.17,7.71,2.9c-.49,2.73-28.37,4.89-28.37,4.89"/>
    <path class="cls-2" d="M502.94,234.09s-79.38,8.55-95.62,10.21c-16.85,1.73-76.5,5.22-76.5,5.22"/>
    <path class="cls-2" d="M331.45,242.31s73.67-6.82,79.8-7.4c6.14-.58,90.4-6.93,90.4-6.93"/>
    <line class="cls-2" x1="412.69" y1="229.25" x2="414.44" y2="252.04"/>
    <path class="cls-2" d="M325.87,244.96s-4.37-47.45-.42-50,5.54,46.12,5.54,46.12"/>
    <path class="cls-2" d="M325.56,241.49l-24.05,1.84s-8.07,1.42-7.17,4.04,28.78.51,28.78.51"/>
    <path class="cls-3" d="M266.79,364.8s-8.66-13.41-2.07-27.05c6.59-13.64,25.42-14.29,32.68-9.47,7.26,4.82,10.56,10.88,12.09,16.65,1.53,5.76,2.16,14.82-1.11,19.99"/>
    <path class="cls-3" d="M584.14,340.2s6.52-14.58-2.07-27.05c-8.59-12.47-27.31-10.25-33.75-4.38-6.44,5.87-8.77,12.37-9.41,18.29-.63,5.93.12,14.98,4.15,19.59"/>
    <path class="cls-3" d="M576.07,291.77s-.2-4.08,2.55-4.5c2.75-.43,195.47-42.4,195.47-42.4"/>
    <path class="cls-3" d="M746.67,239.3s21.77-1.67,25.92,2.68c2.25,2.35,2.69,4.3.57,7.45"/>
    <path class="cls-3" d="M520.04,304.21s-1.96-2.32-7.29-2.25-63.93,14.38-63.93,14.38"/>
    <path class="cls-3" d="M267.43,314.48s-.42-4.06-3.21-4.06c-2.78,0-199.65-12.1-199.65-12.1"/>
    <path class="cls-3" d="M90.83,288.64s-21.77,1.67-25.21,6.6c-1.86,2.67-2,4.66.57,7.45"/>
    <path class="cls-3" d="M324.71,318.23s1.58-2.59,6.86-3.34,65.38,4.46,65.38,4.46"/>
  </g>
  <g class="cls-4">
    <path class="cls-2" d="M425.3,266.31c-13.2-1.27-30.46,34.32-31.99,56.75-1.67,24.53-.19,70.4,18.73,70.15,19.22-.25,32.83-49.01,33.51-66.3,1.15-29.12-6.39-59.28-20.26-60.61Z"/>
    <path class="cls-2" d="M518.11,325.69s1.43,40.07,23.77,48.65c19.18,7.36,33.18-.32,39.54-14.93,8.21-18.83-3.14-36.31-20.31-60.51-10.87-15.32-37.94-45.67-45.76-54.36-.71-.79-2.02-.24-1.96.83l4.71,80.33Z"/>
    <path class="cls-2" d="M322.29,305.24s-9.68,38.91-33.31,42.69c-20.29,3.24-32.39-7.17-35.61-22.78-4.14-20.12,10.58-34.88,32.37-55.01,13.82-12.76,46.65-36.9,56.04-43.76.85-.62,2,.18,1.72,1.19l-21.22,77.66Z"/>
    <path class="cls-2" d="M442.37,291.05s36.29,9.27,74.05,5.85"/>
    <path class="cls-2" d="M445.55,326.92s54.14-5.84,63.35-3.53c9.21,2.3,9.48,6.01,9.48,6.01"/>
    <path class="cls-2" d="M578.35,325.84s-.37-3.8,6.81-4.12c7.18-.32,204.74-7.55,217.79-9.4,13.05-1.85,19.17-2.28,20.04-7.19.87-4.91-27.9-6.49-57.95-6.05-30.05.43-191.93,1.09-197.93.46s-8.24-3.7-8.24-3.7"/>
    <path class="cls-2" d="M403.95,286.7s-37.43,1.57-73.66-9.58"/>
    <path class="cls-2" d="M393.43,321.15s-51.77-16.9-61.25-16.55-10.52,3.92-10.52,3.92"/>
    <path class="cls-2" d="M263.72,292.64s1.15-3.64-5.81-5.44c-6.96-1.8-198.76-49.69-211.15-54.2s-18.28-6.2-18.12-11.18,28.64-.58,57.95,6.05c29.31,6.63,187.57,40.73,193.56,41.35,6,.63,8.83-1.92,8.83-1.92"/>
    <line class="cls-2" x1="412.04" y1="393.22" x2="409.06" y2="421.75"/>
    <polyline class="cls-2" points="355.77 309.7 353.77 328.89 362.12 329.77 363.97 312.04"/>
    <polyline class="cls-2" points="483.86 323.08 481.85 342.27 473.49 341.4 475.34 323.68"/>
    <path class="cls-3" d="M415.27,273.98c-1.32,1.37-2.5,2.85-3.54,4.44-3.28,4.97-10.37,16.18-10.85,20.74-.62,5.95,12.2-1.77,20.01-1.28,7.81.49,19.79,10.04,21.16,7.64,1.98-3.46-2.84-21.31-6.15-27.69-2.57-4.95-5.31-9.03-10.52-9.57-4.07-.42-7.61,3.11-10.12,5.72Z"/>
    <path class="cls-3" d="M393.15,351.06s4.79-12.72,13.07-16.69c8.27-3.97,19.05-2.89,24.26,2.53,5.21,5.42,8.67,20.28,8.67,20.28"/>
    <path class="cls-1" d="M327.62,246.07s-2.47,6.9-.87,8.37c1.59,1.47,4.61,5.97,4.18,10.12-.43,4.14-2.88,5.5-2.39,8.48.49,2.97,3.65,6.68,7.81,2.29s7.04-13.43,4.9-20.74c-2.13-7.31-13.63-8.51-13.63-8.51Z"/>
    <path class="cls-1" d="M524.17,266.6s.99,7.26-.87,8.37c-1.86,1.11-5.74,4.89-6.18,9.03s1.68,5.98.59,8.79-4.95,5.79-8.11.63c-3.16-5.16-4.11-14.6-.51-21.3,3.6-6.71,15.09-5.51,15.09-5.51Z"/>
    <path class="cls-1" d="M534.54,266.28s7.66-1.98,13.06,5.83c5.4,7.82,3.76,14.15,3.76,14.15l-16.83-19.98Z"/>
    <path class="cls-1" d="M318.73,243.88s-7.09-3.52-13.98,3.01c-6.9,6.53-6.61,13.06-6.61,13.06l20.59-16.07Z"/>
    <path class="cls-2" d="M518.53,248.08s5.67-47.31,1.8-49.97c-3.87-2.67-6.81,45.95-6.81,45.95"/>
    <path class="cls-2" d="M518.94,244.62l23.99,2.51s8.03,1.64,7.06,4.24-28.78-.28-28.78-.28"/>
    <path class="cls-2" d="M513.69,250.3s-79.62-5.85-95.9-7.13c-16.89-1.33-76.19-8.61-76.19-8.61"/>
    <path class="cls-2" d="M343.51,227.58s73.69,6.52,79.83,7.06,90.18,9.42,90.18,9.42"/>
    <line class="cls-2" x1="425.78" y1="229.32" x2="423.4" y2="252.05"/>
    <path class="cls-2" d="M337.55,229.18s4.23-47.46,8.57-49.27c4.34-1.81-2.83,46.36-2.83,46.36"/>
    <path class="cls-2" d="M337.86,225.71l-23.99-2.51s-8.2-.06-7.78,2.69c.41,2.75,28.22,5.67,28.22,5.67"/>
    <path class="cls-3" d="M257.9,336.46s-6.11-14.75,2.82-26.98c8.93-12.23,27.58-9.5,33.86-3.45,6.28,6.05,8.43,12.6,8.9,18.55s-.54,14.97-4.69,19.47"/>
    <path class="cls-3" d="M574.51,369.26s9.03-13.17,2.82-26.98c-6.21-13.81-25.02-14.99-32.41-10.37-7.39,4.62-10.85,10.59-12.54,16.31s-2.57,14.75.56,20.01"/>
    <path class="cls-3" d="M575.27,320.17s.54-4.05,3.32-3.97c2.78.08,199.91-6.6,199.91-6.6"/>
    <path class="cls-3" d="M752.52,299.2s21.71,2.27,25.02,7.3c1.79,2.72,1.87,4.71-.78,7.44"/>
    <path class="cls-3" d="M517.91,322.34s-1.51-2.64-6.77-3.53c-5.26-.89-65.48,2.66-65.48,2.66"/>
    <path class="cls-3" d="M267.57,287.07s.31-4.07-2.43-4.57-194.23-47.77-194.23-47.77"/>
    <path class="cls-3" d="M98.48,229.92s-21.71-2.27-25.99,1.97c-2.31,2.29-2.8,4.22-.78,7.44"/>
    <path class="cls-3" d="M323.24,301.04s2.03-2.27,7.35-2.05c5.33.21,63.51,16.13,63.51,16.13"/>
  </g>
  <g class="cls-4">
    <path class="cls-2" d="M450.55,281.02c-11.74-6.18-41.19,20.21-51.11,40.39-10.85,22.06-26.86,65.07-9.26,72.02,17.88,7.06,48.96-32.9,56.14-48.64,12.1-26.51,16.56-57.28,4.23-63.77Z"/>
    <path class="cls-2" d="M513.93,371.15s-13.87,37.62,3.56,54.03c14.96,14.08,30.82,12.28,42.25,1.18,14.73-14.31,10.86-34.79,4.15-63.69-4.25-18.3-17.8-56.64-21.74-67.65-.36-1-1.78-.99-2.13.02l-26.09,76.12Z"/>
    <path class="cls-2" d="M340.48,277.99s-23.71,32.34-47.01,26.87c-20-4.7-27.26-18.92-24.31-34.58,3.79-20.18,23.01-28.27,50.81-38.63,17.63-6.57,57.15-16.47,68.45-19.25,1.02-.25,1.78.92,1.14,1.76l-49.08,63.82Z"/>
    <path class="cls-2" d="M456.98,310.38s30.07,22.34,66.31,33.48"/>
    <path class="cls-2" d="M446.32,344.78s52.32,15.13,59.96,20.75c7.65,5.62,6.49,9.16,6.49,9.16"/>
    <path class="cls-2" d="M569.62,394.12s1.1-3.66,7.86-1.24,192.32,70.63,205.1,73.87,18.6,5.15,21.27.94c2.67-4.21-23.36-16.58-51.33-27.57-27.97-10.99-178.02-71.75-183.33-74.61-5.31-2.85-6.22-6.55-6.22-6.55"/>
    <path class="cls-2" d="M423.07,291.8s-35.23-12.73-64.53-36.79"/>
    <path class="cls-2" d="M400.27,319.68s-41.5-35.26-50.41-38.53c-8.91-3.27-11.22-.36-11.22-.36"/>
    <path class="cls-2" d="M291.05,244.13s2.44-2.94-3.31-7.24c-5.76-4.3-165.09-121.33-174.84-130.2-9.75-8.87-14.57-12.66-12.53-17.21,2.04-4.55,26.72,10.32,51.33,27.57,24.61,17.25,158.13,108.79,163.44,111.64,5.31,2.85,8.9,1.57,8.9,1.57"/>
    <line class="cls-2" x1="390.18" y1="393.43" x2="376.6" y2="418.7"/>
    <polyline class="cls-2" points="369.77 294.81 360.64 311.81 368.04 315.79 376.47 300.09"/>
    <polyline class="cls-2" points="483.22 355.74 474.09 372.75 466.69 368.77 475.12 353.07"/>
    <path class="cls-3" d="M438.37,284.31c-1.74.77-3.39,1.69-4.96,2.77-4.92,3.36-15.73,11.04-17.9,15.08-2.83,5.27,11.96,2.99,19,6.4,7.04,3.41,14.5,16.79,16.69,15.09,3.14-2.45,5.45-20.8,4.81-27.95-.5-5.55-1.49-10.37-6.1-12.84-3.6-1.93-8.22,0-11.53,1.46Z"/>
    <path class="cls-3" d="M388.67,347.25s9.26-9.95,18.42-10.49,18.72,4.55,21.49,11.54c2.77,6.99.34,22.06.34,22.06"/>
    <path class="cls-1" d="M367.84,225.26s-4.9,5.45-3.98,7.42,2,7.28.03,10.94-4.75,4-5.42,6.94c-.67,2.94.84,7.57,6.36,5.08,5.52-2.49,11.6-9.76,12.4-17.33.79-7.57-9.38-13.04-9.38-13.04Z"/>
    <path class="cls-1" d="M541.93,318.77s-1.84,7.09-3.98,7.42c-2.14.32-7.17,2.35-9.14,6.02-1.97,3.67-.71,6.17-2.79,8.35-2.08,2.18-6.78,3.48-7.75-2.5-.97-5.97,1.73-15.07,7.6-19.91s16.06.62,16.06.62Z"/>
    <path class="cls-1" d="M551.66,322.4s7.84,1.07,9.87,10.35c2.03,9.28-1.88,14.52-1.88,14.52l-8-24.87Z"/>
    <path class="cls-1" d="M360.44,219.87s-5.22-5.95-14.08-2.52c-8.86,3.43-11.07,9.58-11.07,9.58l25.15-7.07Z"/>
    <path class="cls-2" d="M543.74,299.49s23.18-41.63,20.61-45.56-23.72,39.94-23.72,39.94"/>
    <path class="cls-2" d="M545.43,296.44l21.25,11.41s6.81,4.56,4.93,6.6c-1.88,2.04-26.53-11.17-26.53-11.17"/>
    <path class="cls-2" d="M538.42,299.71s-71.46-35.6-86.04-42.95c-15.13-7.63-67.24-36.85-67.24-36.85"/>
    <path class="cls-2" d="M389.56,214.17s65.72,33.97,71.2,36.8c5.48,2.82,79.88,42.9,79.88,42.9"/>
    <line class="cls-2" x1="465.02" y1="246.97" x2="454.21" y2="267.1"/>
    <path class="cls-2" d="M383.43,213.39s21.9-42.31,26.6-42.34c4.7-.03-20.2,41.83-20.2,41.83"/>
    <path class="cls-2" d="M385.04,210.3l-21.25-11.41s-7.56-3.16-8.22-.46,23.96,15.95,23.96,15.95"/>
    <path class="cls-3" d="M269.06,282.47s-.06-15.97,12.84-23.9c12.9-7.93,29.12,1.67,32.64,9.64,3.52,7.97,3.02,14.86,1.21,20.54-1.82,5.68-6.17,13.65-11.72,16.24"/>
    <path class="cls-3" d="M549.6,432.85s13.35-8.76,12.84-23.9c-.51-15.14-17.47-23.36-26.06-21.88-8.59,1.47-14.06,5.68-17.79,10.34s-7.97,12.68-7.07,18.73"/>
    <path class="cls-3" d="M568.91,387.71s2.03-3.54,4.58-2.42c2.55,1.13,187.49,69.68,187.49,69.68"/>
    <path class="cls-3" d="M740.88,435.5s19.23,10.33,20.39,16.24c.62,3.19-.06,5.07-3.54,6.59"/>
    <path class="cls-3" d="M515.02,367.98s-.4-3.01-4.93-5.83c-4.53-2.82-61.6-22.36-61.6-22.36"/>
    <path class="cls-3" d="M296.73,240.43s1.83-3.65-.51-5.15c-2.34-1.5-161.63-117.83-161.63-117.83"/>
    <path class="cls-3" d="M161.92,123.45s-19.23-10.33-24.79-8.03c-3.01,1.24-4.19,2.84-3.54,6.59"/>
    <path class="cls-3" d="M342.94,274.47s2.73-1.33,7.58.89c4.85,2.22,52.66,39.01,52.66,39.01"/>
  </g>
  <g class="cls-4">
    <path class="cls-2" d="M411.44,273.52c-12.49,4.47-12.97,44.01-4.81,64.97,8.92,22.91,29.76,63.8,46.79,55.53,17.29-8.4,8.88-58.32,2.14-74.25-11.35-26.84-30.99-50.94-44.11-46.24Z"/>
    <path class="cls-2" d="M520.7,287.8s18.34,35.66,42.21,33.92c20.49-1.5,29.89-14.4,29.44-30.33-.58-20.53-18.28-31.53-44.11-46.13-16.36-9.24-53.76-25.2-64.53-29.74-.98-.41-1.93.64-1.42,1.58l38.42,70.7Z"/>
    <path class="cls-2" d="M334.77,352.56s7.79,39.34-12,52.8c-16.99,11.56-32.37,7.28-41.91-5.47-12.3-16.45-5.26-36.07,5.91-63.55,7.08-17.43,26.52-53.24,32.11-63.44.51-.92,1.89-.69,2.07.35l13.83,79.31Z"/>
    <path class="cls-2" d="M437.42,288.65s36.79-7.04,69.51-26.2"/>
    <path class="cls-2" d="M455.55,319.76s46.52-28.31,55.83-30.14c9.31-1.83,11.14,1.41,11.14,1.41"/>
    <path class="cls-2" d="M575.28,262.3s-1.95-3.28,4.41-6.63,182.09-93.9,193.12-101.13,16.38-10.22,15.08-15.03c-1.3-4.81-28.01,5.99-55.02,19.17-27.01,13.17-173.25,82.61-178.94,84.59-5.69,1.98-9.03.16-9.03.16"/>
    <path class="cls-2" d="M400.8,301.06s-33.21,17.34-70.74,22.66"/>
    <path class="cls-2" d="M405.92,336.71s-54.04,6.72-62.47,11.07c-8.43,4.35-7.85,8.02-7.85,8.02"/>
    <path class="cls-2" d="M276.4,366.07s-.51-3.79-7.57-2.46c-7.06,1.33-201.03,39.55-214.16,40.74-13.13,1.19-19.18,2.17-21.15-2.41s25.67-12.7,55.02-19.17c29.35-6.46,187.08-42.91,192.77-44.89,5.69-1.98,7.18-5.49,7.18-5.49"/>
    <line class="cls-2" x1="453.42" y1="394.02" x2="462.85" y2="421.11"/>
    <polyline class="cls-2" points="366.97 342.36 373.32 360.58 381.25 357.82 375.39 340.99"/>
    <polyline class="cls-2" points="488.58 299.99 494.93 318.22 487 320.99 481.14 304.16"/>
    <path class="cls-3" d="M405.63,284.73c-.61,1.8-1.05,3.65-1.32,5.53-.85,5.9-2.51,19.05-1,23.38,1.97,5.65,10.3-6.79,17.57-9.67,7.27-2.88,22.18.67,22.4-2.09.32-3.97-11.63-18.08-17.34-22.44-4.43-3.39-8.64-5.91-13.59-4.19-3.86,1.35-5.57,6.05-6.72,9.48Z"/>
    <path class="cls-3" d="M418.39,363.9s-1.07-13.55,4.73-20.66c5.8-7.11,16.01-10.71,23.04-8.02,7.02,2.69,16.48,14.67,16.48,14.67"/>
    <path class="cls-1" d="M314.43,296.75s.7,7.29,2.77,7.95c2.07.66,6.71,3.45,8.08,7.38s-.27,6.21,1.44,8.69,6.14,4.5,8.04-1.25c1.9-5.75.66-15.15-4.38-20.86-5.04-5.71-15.95-1.91-15.95-1.91Z"/>
    <path class="cls-1" d="M501.05,231.74s3.98,6.15,2.77,7.95c-1.21,1.8-3.12,6.87-1.75,10.8,1.37,3.93,4.07,4.7,4.27,7.7s-2.02,7.34-7.08,4.02c-5.06-3.32-9.93-11.46-9.52-19.06.4-7.6,11.32-11.41,11.32-11.41Z"/>
    <path class="cls-1" d="M510.3,227.03s6.09-5.05,14.3-.27c8.21,4.78,9.42,11.2,9.42,11.2l-23.73-10.93Z"/>
    <path class="cls-1" d="M305.46,298.54s-7.91-.17-11.38,8.67c-3.47,8.85-.42,14.63-.42,14.63l11.8-23.3Z"/>
    <path class="cls-2" d="M488.07,217.37s-14.99-45.23-19.62-46c-4.64-.77,13.38,44.48,13.38,44.48"/>
    <path class="cls-2" d="M486.97,214.07l22.78-7.93s7.96-1.93,8.19.83c.23,2.77-26.17,11.98-26.17,11.98"/>
    <path class="cls-2" d="M484.63,221.44s-74.55,28.57-89.83,34.33-72.62,24.61-72.62,24.61"/>
    <path class="cls-2" d="M320.95,273.25s69.47-25.43,75.26-27.56c5.79-2.13,85.62-29.83,85.62-29.83"/>
    <line class="cls-2" x1="396.15" y1="239.84" x2="403.66" y2="261.42"/>
    <path class="cls-2" d="M316.23,277.23s-16.36-44.75-13.2-48.23c3.16-3.48,17.15,43.17,17.15,43.17"/>
    <path class="cls-2" d="M315.04,273.96l-22.78,7.93s-7.44,3.43-5.9,5.74,27.95-6.87,27.95-6.87"/>
    <path class="cls-3" d="M289.77,408.2s-11.81-10.75-8.92-25.62c2.88-14.87,20.92-20.32,29.17-17.52,8.25,2.8,12.99,7.82,15.94,13,2.95,5.18,5.88,13.77,4.04,19.61"/>
    <path class="cls-3" d="M590.27,303.24s2.57-15.76-8.92-25.62c-11.5-9.86-29.02-2.93-33.74,4.4-4.73,7.32-5.32,14.2-4.42,20.09.9,5.89,3.95,14.45,9.02,17.88"/>
    <path class="cls-3" d="M570.08,258.49s-1.24-3.89,1.31-5.01c2.55-1.11,178.13-90.99,178.13-90.99"/>
    <path class="cls-3" d="M721.58,164.13s20.62-7.18,25.75-4.04c2.77,1.7,3.7,3.47,2.46,7.06"/>
    <path class="cls-3" d="M519.1,284.85s-2.49-1.74-7.63-.31c-5.14,1.43-58.13,30.25-58.13,30.25"/>
    <path class="cls-3" d="M277.52,359.39s-1.45-3.82-4.14-3.11c-2.69.71-196.11,39.37-196.11,39.37"/>
    <path class="cls-3" d="M100.18,379.58s-20.62,7.18-22.68,12.83c-1.12,3.05-.74,5.01,2.46,7.06"/>
    <path class="cls-3" d="M333.84,348.36s.87-2.91,5.78-4.98c4.91-2.07,64.34-12.41,64.34-12.41"/>
  </g>
</svg>