<?xml version="1.0" encoding="UTF-8"?>
<svg id="Layer_1" data-name="Layer 1" xmlns="http://www.w3.org/2000/svg" viewBox="0 0 1675.95 969.82">
  <defs>
    <style>
      .cls-1, .cls-2, .cls-3, .cls-4 {
        stroke-width: 0px;
      }

      .cls-2 {
        fill: #6aff3f;
      }

      .cls-3 {
        fill: #fff600;
      }

      .cls-4 {
        fill: red;
      }
    </style>
  </defs>
  <g>
    <circle class="cls-4" cx="431.95" cy="533.01" r="196.5"/>
    <path class="cls-1" d="M431.95,337.01c26.46,0,52.13,5.18,76.29,15.4,23.34,9.87,44.3,24,62.3,42,18,18,32.13,38.96,42,62.3,10.22,24.16,15.4,49.83,15.4,76.29s-5.18,52.13-15.4,76.29c-9.87,23.34-24,44.3-42,62.3-18,18-38.96,32.13-62.3,42-24.16,10.22-49.83,15.4-76.29,15.4s-52.13-5.18-76.29-15.4c-23.34-9.87-44.3-24-62.3-42-18-18-32.13-38.96-42-62.3-10.22-24.16-15.4-49.83-15.4-76.29s5.18-52.13,15.4-76.29c9.87-23.34,24-44.3,42-62.3,18-18,38.96-32.13,62.3-42,24.16-10.22,49.83-15.4,76.29-15.4M431.95,336.01c-108.8,0-197,88.2-197,197s88.2,197,197,197,197-88.2,197-197-88.2-197-197-197h0Z"/>
  </g>
  <path class="cls-1" d="M451.95,246.01c38.75,0,76.33,7.59,111.71,22.55,34.18,14.46,64.87,35.15,91.23,61.51,26.36,26.36,47.05,57.05,61.51,91.23,14.97,35.38,22.55,72.97,22.55,111.71s-7.59,76.33-22.55,111.71c-14.46,34.18-35.15,64.87-61.51,91.23-26.36,26.36-57.05,47.05-91.23,61.51-35.38,14.97-72.97,22.55-111.71,22.55s-76.33-7.59-111.71-22.55c-34.18-14.46-64.87-35.15-91.23-61.51-26.36-26.36-47.05-57.05-61.51-91.23-14.97-35.38-22.55-72.97-22.55-111.71s7.59-76.33,22.55-111.71c14.46-34.18,35.15-64.87,61.51-91.23,26.36-26.36,57.05-47.05,91.23-61.51,35.38-14.97,72.97-22.55,111.71-22.55M451.95,245.01c-159.06,0-288,128.94-288,288s128.94,288,288,288,288-128.94,288-288-128.94-288-288-288h0Z"/>
  <path class="cls-1" d="M1031.45,1c77.52,0,151.53,7,219.98,20.82,67.88,13.7,129.12,33.86,182.03,59.91,109.66,54,178.37,130.64,198.71,221.64,6.79,30.38,8.03,61.97,3.7,93.91-4.23,31.14-13.8,62.99-28.46,94.67-14.4,31.11-33.86,62.37-57.82,92.9-23.74,30.25-52.12,60.05-84.34,88.58-65.41,57.91-145.09,109.7-236.81,153.94-94.98,45.81-198.78,81.47-308.52,105.99-105.33,23.54-210.26,35.47-311.88,35.47-77.53,0-151.56-7-220.01-20.82-67.89-13.7-129.14-33.85-182.05-59.9-109.67-54-178.39-130.64-198.72-221.65-6.79-30.38-8.03-61.97-3.7-93.91,4.23-31.14,13.8-62.99,28.46-94.67,14.4-31.12,33.86-62.37,57.82-92.9,23.74-30.25,52.12-60.05,84.34-88.58,65.41-57.91,145.09-109.7,236.81-153.94,94.98-45.81,198.78-81.47,308.52-105.99C824.8,12.94,929.73,1.01,1031.38,1h.07M1031.38,0c-98.82,0-204.34,11.41-312.1,35.49C270.03,135.88-49.2,418.47,6.26,666.67c42.16,188.67,288.61,303.15,601.76,303.15,98.82,0,204.34-11.41,312.1-35.49,449.25-100.38,768.48-382.97,713.02-631.18C1590.98,114.48,1344.53-.02,1031.38,0h0Z"/>
  <g>
    <path class="cls-1" d="M323.28,485.07h3.96l9.37,25.82h-3.83l-2.62-7.73h-10.21l-2.79,7.73h-3.59l9.72-25.82ZM329.03,500.31l-3.92-11.41-4.17,11.41h8.09Z"/>
    <path class="cls-1" d="M339.45,492.06h3.01v3.25c.25-.63.85-1.4,1.81-2.31s2.07-1.36,3.32-1.36c.06,0,.16,0,.3.02s.38.04.72.07v3.34c-.19-.04-.36-.06-.52-.07s-.33-.02-.52-.02c-1.59,0-2.82.51-3.67,1.54s-1.28,2.21-1.28,3.54v10.83h-3.16v-18.83Z"/>
    <path class="cls-1" d="M362.98,492.58c1.25.63,2.2,1.44,2.85,2.43.63.95,1.05,2.06,1.26,3.32.19.87.28,2.25.28,4.15h-13.69c.06,1.92.51,3.45,1.34,4.61.84,1.16,2.13,1.74,3.89,1.74,1.64,0,2.95-.55,3.92-1.64.55-.64.93-1.37,1.16-2.21h3.11c-.08.69-.35,1.46-.82,2.31s-.98,1.54-1.55,2.08c-.95.94-2.13,1.57-3.54,1.9-.76.19-1.61.28-2.56.28-2.33,0-4.3-.85-5.92-2.56-1.62-1.71-2.43-4.09-2.43-7.16s.82-5.48,2.45-7.37,3.76-2.83,6.39-2.83c1.33,0,2.61.31,3.86.94ZM364.12,499.97c-.13-1.37-.42-2.47-.89-3.29-.86-1.52-2.29-2.29-4.31-2.29-1.44,0-2.65.52-3.63,1.57s-1.49,2.38-1.55,4h10.37Z"/>
    <path class="cls-1" d="M381.47,499.5c.73-.09,1.21-.4,1.46-.91.14-.28.21-.69.21-1.22,0-1.08-.38-1.87-1.15-2.36-.77-.49-1.86-.73-3.29-.73-1.65,0-2.82.45-3.51,1.34-.39.49-.64,1.23-.75,2.21h-2.95c.06-2.33.81-3.95,2.26-4.86,1.45-.91,3.12-1.37,5.03-1.37,2.21,0,4.01.42,5.39,1.27,1.37.84,2.05,2.16,2.05,3.94v10.85c0,.33.07.59.2.79.13.2.42.3.85.3.14,0,.3,0,.47-.03s.36-.04.56-.08v2.34c-.49.14-.87.23-1.12.26s-.61.05-1.05.05c-1.09,0-1.88-.39-2.37-1.16-.26-.41-.44-.99-.54-1.74-.64.84-1.57,1.58-2.78,2.2-1.21.62-2.54.93-3.99.93-1.75,0-3.17-.53-4.28-1.59s-1.66-2.38-1.66-3.98c0-1.74.54-3.1,1.63-4.06,1.09-.96,2.52-1.55,4.29-1.77l5.05-.63ZM374.8,508.05c.67.53,1.46.79,2.37.79,1.11,0,2.19-.26,3.23-.77,1.76-.85,2.64-2.25,2.64-4.19v-2.54c-.39.25-.88.45-1.49.62-.61.16-1.2.28-1.79.35l-1.91.25c-1.15.15-2.01.39-2.59.72-.98.55-1.47,1.43-1.47,2.63,0,.91.33,1.63,1,2.16Z"/>
    <path class="cls-1" d="M415.04,493.94c1.66,1.62,2.5,3.99,2.5,7.13s-.73,5.54-2.2,7.52c-1.47,1.98-3.74,2.97-6.83,2.97-2.57,0-4.61-.88-6.13-2.63-1.51-1.75-2.27-4.1-2.27-7.05,0-3.16.8-5.68,2.39-7.55,1.59-1.87,3.74-2.81,6.42-2.81,2.41,0,4.45.81,6.11,2.42ZM413.08,506.46c.77-1.59,1.16-3.35,1.16-5.29,0-1.76-.28-3.18-.83-4.28-.88-1.73-2.4-2.6-4.55-2.6-1.91,0-3.3.74-4.17,2.21-.87,1.48-1.3,3.25-1.3,5.34s.43,3.67,1.3,5c.87,1.33,2.25,2,4.14,2,2.07,0,3.5-.79,4.27-2.38Z"/>
    <path class="cls-1" d="M422.9,486.32c.74-1.08,2.16-1.62,4.27-1.62.2,0,.4,0,.62.02s.45.03.72.05v2.88c-.33-.02-.57-.04-.72-.04-.15,0-.29,0-.42,0-.97,0-1.55.25-1.74.75s-.28,1.77-.28,3.81h3.16v2.5h-3.16v16.24h-3.13v-16.24h-2.62v-2.5h2.62v-2.95c.05-1.31.28-2.27.69-2.88Z"/>
    <path class="cls-1" d="M442.89,492.06l3.62,14.84,3.67-14.84h3.55l3.69,14.75,3.85-14.75h3.16l-5.47,18.83h-3.29l-3.83-14.57-3.71,14.57h-3.29l-5.43-18.83h3.46Z"/>
    <path class="cls-1" d="M467.42,484.98h3.16v9.63c.75-.95,1.42-1.62,2.02-2,1.02-.67,2.29-1,3.81-1,2.73,0,4.58.96,5.55,2.87.53,1.04.79,2.49.79,4.34v12.08h-3.25v-11.87c0-1.38-.18-2.4-.53-3.04-.57-1.03-1.65-1.55-3.23-1.55-1.31,0-2.5.45-3.57,1.35s-1.6,2.61-1.6,5.12v9.98h-3.16v-25.91Z"/>
    <path class="cls-1" d="M487.44,485.07h3.22v3.59h-3.22v-3.59ZM487.44,492.15h3.22v18.74h-3.22v-18.74Z"/>
    <path class="cls-1" d="M507.88,493.07c1.33,1.03,2.13,2.81,2.4,5.33h-3.08c-.19-1.16-.62-2.12-1.28-2.89s-1.74-1.15-3.22-1.15c-2.02,0-3.46.98-4.32,2.95-.56,1.28-.84,2.85-.84,4.72s.4,3.47,1.2,4.76c.8,1.29,2.05,1.93,3.76,1.93,1.31,0,2.35-.4,3.12-1.2s1.3-1.89,1.59-3.28h3.08c-.35,2.5-1.23,4.32-2.64,5.48s-3.21,1.73-5.4,1.73c-2.46,0-4.42-.9-5.89-2.7s-2.2-4.05-2.2-6.74c0-3.3.8-5.88,2.41-7.72s3.65-2.76,6.13-2.76c2.12,0,3.85.52,5.18,1.55Z"/>
    <path class="cls-1" d="M513.44,484.98h3.16v9.63c.75-.95,1.42-1.62,2.02-2,1.02-.67,2.29-1,3.81-1,2.73,0,4.58.96,5.55,2.87.53,1.04.79,2.49.79,4.34v12.08h-3.25v-11.87c0-1.38-.18-2.4-.53-3.04-.57-1.03-1.65-1.55-3.23-1.55-1.31,0-2.5.45-3.57,1.35s-1.6,2.61-1.6,5.12v9.98h-3.16v-25.91Z"/>
    <path class="cls-1" d="M544.68,485.07h3.53v25.82h-3.53v-25.82Z"/>
    <path class="cls-1" d="M315.81,535.26l3.62,14.84,3.67-14.84h3.55l3.69,14.75,3.85-14.75h3.16l-5.47,18.83h-3.29l-3.83-14.57-3.71,14.57h-3.29l-5.43-18.83h3.46Z"/>
    <path class="cls-1" d="M353.98,537.14c1.66,1.62,2.5,3.99,2.5,7.13s-.73,5.54-2.2,7.52c-1.47,1.98-3.74,2.97-6.83,2.97-2.57,0-4.61-.88-6.13-2.62-1.51-1.75-2.27-4.1-2.27-7.05,0-3.16.8-5.68,2.39-7.55,1.59-1.87,3.74-2.81,6.42-2.81,2.41,0,4.45.81,6.11,2.42ZM352.02,549.66c.77-1.59,1.16-3.35,1.16-5.29,0-1.76-.28-3.18-.83-4.28-.88-1.73-2.4-2.6-4.55-2.6-1.91,0-3.3.74-4.17,2.21-.87,1.48-1.3,3.25-1.3,5.34s.43,3.67,1.3,5c.87,1.33,2.25,2,4.14,2,2.07,0,3.5-.79,4.27-2.38Z"/>
    <path class="cls-1" d="M363.53,535.26v12.5c0,.96.15,1.75.45,2.36.55,1.12,1.57,1.69,3.06,1.69,2.15,0,3.61-.98,4.38-2.95.42-1.05.63-2.5.63-4.34v-9.25h3.16v18.83h-2.99l.04-2.78c-.4.71-.9,1.32-1.5,1.81-1.18.98-2.62,1.48-4.31,1.48-2.63,0-4.43-.9-5.38-2.69-.52-.96-.78-2.24-.78-3.85v-12.8h3.23Z"/>
    <path class="cls-1" d="M380.47,528.27h3.16v25.82h-3.16v-25.82Z"/>
    <path class="cls-1" d="M398.73,535.85c.56.35,1.2.97,1.91,1.85v-9.51h3.04v25.91h-2.85v-2.62c-.74,1.16-1.61,2-2.61,2.51s-2.15.77-3.45.77c-2.09,0-3.9-.88-5.43-2.65s-2.29-4.11-2.29-7.04c0-2.74.7-5.12,2.09-7.13s3.39-3.01,5.98-3.01c1.44,0,2.64.3,3.61.91ZM391.66,549.96c.85,1.36,2.22,2.04,4.09,2.04,1.46,0,2.66-.63,3.59-1.89.94-1.26,1.41-3.07,1.41-5.42s-.48-4.14-1.45-5.28-2.16-1.71-3.59-1.71c-1.59,0-2.87.61-3.86,1.83-.98,1.22-1.48,3.01-1.48,5.38,0,2.02.43,3.7,1.28,5.06Z"/>
    <path class="cls-1" d="M430.84,536.27c1.33,1.03,2.13,2.81,2.4,5.33h-3.08c-.19-1.16-.62-2.12-1.28-2.89s-1.74-1.15-3.22-1.15c-2.02,0-3.46.98-4.32,2.95-.56,1.28-.84,2.85-.84,4.72s.4,3.47,1.2,4.76c.8,1.29,2.05,1.93,3.76,1.93,1.31,0,2.35-.4,3.12-1.2s1.3-1.89,1.59-3.28h3.08c-.35,2.5-1.23,4.32-2.64,5.48s-3.21,1.73-5.4,1.73c-2.46,0-4.42-.9-5.89-2.7s-2.2-4.05-2.2-6.74c0-3.3.8-5.88,2.41-7.72s3.65-2.76,6.13-2.76c2.12,0,3.85.52,5.18,1.55Z"/>
    <path class="cls-1" d="M450.05,537.14c1.66,1.62,2.5,3.99,2.5,7.13s-.73,5.54-2.2,7.52c-1.47,1.98-3.74,2.97-6.83,2.97-2.57,0-4.61-.88-6.13-2.62-1.51-1.75-2.27-4.1-2.27-7.05,0-3.16.8-5.68,2.39-7.55,1.59-1.87,3.74-2.81,6.42-2.81,2.41,0,4.45.81,6.11,2.42ZM448.08,549.66c.77-1.59,1.16-3.35,1.16-5.29,0-1.76-.28-3.18-.83-4.28-.88-1.73-2.4-2.6-4.55-2.6-1.91,0-3.3.74-4.17,2.21-.87,1.48-1.3,3.25-1.3,5.34s.43,3.67,1.3,5c.87,1.33,2.25,2,4.14,2,2.07,0,3.5-.79,4.27-2.38Z"/>
    <path class="cls-1" d="M456.43,535.26h3.01v2.67c.89-1.1,1.83-1.89,2.83-2.37s2.1-.72,3.32-.72c2.67,0,4.48.93,5.41,2.79.52,1.02.77,2.48.77,4.38v12.08h-3.22v-11.87c0-1.15-.17-2.07-.51-2.78-.56-1.17-1.58-1.76-3.06-1.76-.75,0-1.37.08-1.85.23-.87.26-1.63.77-2.29,1.55-.53.62-.87,1.26-1.03,1.92s-.24,1.61-.24,2.84v9.86h-3.16v-18.83Z"/>
    <path class="cls-1" d="M478.33,548.18c.1,1.05.36,1.86.81,2.43.81,1.02,2.22,1.53,4.23,1.53,1.2,0,2.25-.25,3.16-.76s1.36-1.3,1.36-2.36c0-.81-.36-1.42-1.09-1.85-.46-.26-1.38-.56-2.75-.9l-2.55-.63c-1.63-.4-2.83-.84-3.61-1.34-1.38-.86-2.07-2.04-2.07-3.55,0-1.78.65-3.22,1.95-4.32,1.3-1.1,3.05-1.65,5.25-1.65,2.87,0,4.95.83,6.22,2.5.8,1.05,1.18,2.19,1.16,3.41h-2.99c-.06-.71-.32-1.36-.77-1.94-.74-.83-2.03-1.24-3.87-1.24-1.22,0-2.15.23-2.78.68-.63.46-.94,1.06-.94,1.8,0,.82.41,1.47,1.24,1.96.48.29,1.18.55,2.11.77l2.13.51c2.32.55,3.87,1.08,4.66,1.6,1.23.81,1.85,2.08,1.85,3.81s-.64,3.12-1.93,4.34c-1.29,1.22-3.25,1.83-5.88,1.83-2.84,0-4.84-.64-6.02-1.91-1.18-1.27-1.81-2.84-1.9-4.72h3.04Z"/>
    <path class="cls-1" d="M494.45,528.27h3.22v3.59h-3.22v-3.59ZM494.45,535.35h3.22v18.74h-3.22v-18.74Z"/>
    <path class="cls-1" d="M512.79,535.85c.56.35,1.2.97,1.91,1.85v-9.51h3.04v25.91h-2.85v-2.62c-.74,1.16-1.61,2-2.61,2.51s-2.15.77-3.45.77c-2.09,0-3.9-.88-5.43-2.65s-2.29-4.11-2.29-7.04c0-2.74.7-5.12,2.09-7.13s3.39-3.01,5.98-3.01c1.44,0,2.64.3,3.61.91ZM505.73,549.96c.85,1.36,2.22,2.04,4.09,2.04,1.46,0,2.66-.63,3.59-1.89.94-1.26,1.41-3.07,1.41-5.42s-.48-4.14-1.45-5.28-2.16-1.71-3.59-1.71c-1.59,0-2.87.61-3.86,1.83-.98,1.22-1.48,3.01-1.48,5.38,0,2.02.43,3.7,1.28,5.06Z"/>
    <path class="cls-1" d="M534.1,535.78c1.25.63,2.2,1.44,2.85,2.43.63.95,1.05,2.06,1.26,3.32.19.87.28,2.25.28,4.15h-13.69c.06,1.92.51,3.45,1.34,4.61.84,1.16,2.13,1.74,3.89,1.74,1.64,0,2.95-.55,3.92-1.64.55-.63.93-1.37,1.16-2.21h3.11c-.08.69-.35,1.46-.82,2.31s-.98,1.54-1.55,2.08c-.95.94-2.13,1.57-3.54,1.9-.76.19-1.61.28-2.56.28-2.33,0-4.3-.85-5.92-2.56-1.62-1.71-2.43-4.09-2.43-7.16s.82-5.48,2.45-7.37,3.76-2.83,6.39-2.83c1.33,0,2.61.31,3.86.94ZM535.23,543.18c-.13-1.37-.42-2.47-.89-3.29-.86-1.52-2.29-2.29-4.31-2.29-1.44,0-2.65.52-3.63,1.57s-1.49,2.38-1.55,4h10.37Z"/>
    <path class="cls-1" d="M542.58,535.26h3.01v3.25c.25-.63.85-1.4,1.81-2.31s2.07-1.36,3.32-1.36c.06,0,.16,0,.3.02s.38.04.72.07v3.34c-.19-.04-.36-.06-.52-.07s-.33-.02-.52-.02c-1.59,0-2.82.51-3.67,1.54s-1.28,2.21-1.28,3.54v10.83h-3.16v-18.83Z"/>
    <path class="cls-1" d="M356.36,571.47h3.22v3.59h-3.22v-3.59ZM356.36,578.55h3.22v18.74h-3.22v-18.74Z"/>
    <path class="cls-1" d="M364.35,578.47h3.01v2.67c.89-1.1,1.83-1.89,2.83-2.37s2.1-.72,3.32-.72c2.67,0,4.48.93,5.41,2.79.52,1.02.77,2.48.77,4.38v12.08h-3.22v-11.87c0-1.15-.17-2.07-.51-2.78-.56-1.17-1.58-1.76-3.06-1.76-.75,0-1.37.08-1.85.23-.87.26-1.63.77-2.29,1.55-.53.62-.87,1.26-1.03,1.92s-.24,1.61-.24,2.84v9.86h-3.16v-18.83Z"/>
    <path class="cls-1" d="M395.01,573.21h3.2v5.26h3.01v2.58h-3.01v12.29c0,.66.22,1.1.67,1.32.25.13.66.19,1.23.19.15,0,.32,0,.49-.01s.38-.03.62-.06v2.51c-.36.11-.74.18-1.13.23s-.82.07-1.27.07c-1.48,0-2.48-.38-3.01-1.13s-.79-1.74-.79-2.94v-12.46h-2.55v-2.58h2.55v-5.26Z"/>
    <path class="cls-1" d="M404.38,571.38h3.16v9.63c.75-.95,1.42-1.62,2.02-2,1.02-.67,2.29-1,3.81-1,2.73,0,4.58.96,5.55,2.87.53,1.04.79,2.49.79,4.34v12.08h-3.25v-11.87c0-1.38-.18-2.4-.53-3.04-.57-1.03-1.65-1.55-3.23-1.55-1.31,0-2.5.45-3.57,1.35s-1.6,2.61-1.6,5.12v9.98h-3.16v-25.91Z"/>
    <path class="cls-1" d="M436.03,578.98c1.25.63,2.2,1.44,2.85,2.43.63.95,1.05,2.06,1.26,3.32.19.87.28,2.25.28,4.15h-13.69c.06,1.92.51,3.45,1.34,4.61.84,1.16,2.13,1.74,3.89,1.74,1.64,0,2.95-.55,3.92-1.64.55-.63.93-1.37,1.16-2.21h3.11c-.08.69-.35,1.46-.82,2.31s-.98,1.54-1.55,2.08c-.95.94-2.13,1.57-3.54,1.9-.76.19-1.61.28-2.56.28-2.33,0-4.3-.85-5.92-2.56-1.62-1.71-2.43-4.09-2.43-7.16s.82-5.48,2.45-7.37,3.76-2.83,6.39-2.83c1.33,0,2.61.31,3.86.94ZM437.16,586.38c-.13-1.37-.42-2.47-.89-3.29-.86-1.52-2.29-2.29-4.31-2.29-1.44,0-2.65.52-3.63,1.57s-1.49,2.38-1.55,4h10.37Z"/>
    <path class="cls-1" d="M454.16,571.38h3.08v9.37c.69-.9,1.52-1.59,2.49-2.07.96-.47,2.01-.71,3.14-.71,2.35,0,4.26.81,5.73,2.42,1.46,1.61,2.2,3.99,2.2,7.13,0,2.98-.72,5.45-2.17,7.42-1.45,1.97-3.45,2.95-6.02,2.95-1.44,0-2.65-.35-3.63-1.04-.59-.41-1.22-1.07-1.89-1.97v2.41h-2.92v-25.91ZM466.26,593.06c.85-1.36,1.28-3.15,1.28-5.38,0-1.98-.43-3.62-1.28-4.92s-2.11-1.95-3.77-1.95c-1.45,0-2.71.53-3.8,1.6-1.09,1.07-1.63,2.82-1.63,5.27,0,1.77.22,3.21.67,4.31.83,2.07,2.39,3.11,4.67,3.11,1.72,0,3-.68,3.85-2.04Z"/>
    <path class="cls-1" d="M488.09,580.34c1.66,1.62,2.5,3.99,2.5,7.13s-.73,5.54-2.2,7.52c-1.47,1.98-3.74,2.97-6.83,2.97-2.57,0-4.61-.88-6.13-2.62-1.51-1.75-2.27-4.1-2.27-7.05,0-3.16.8-5.68,2.39-7.55,1.59-1.87,3.74-2.81,6.42-2.81,2.41,0,4.45.81,6.11,2.42ZM486.12,592.86c.77-1.59,1.16-3.35,1.16-5.29,0-1.76-.28-3.18-.83-4.28-.88-1.73-2.4-2.6-4.55-2.6-1.91,0-3.3.74-4.17,2.21-.87,1.48-1.3,3.25-1.3,5.34s.43,3.67,1.3,5c.87,1.33,2.25,2,4.14,2,2.07,0,3.5-.79,4.27-2.38Z"/>
    <path class="cls-1" d="M492.67,578.47h4.1l4.32,6.63,4.38-6.63,3.85.09-6.35,9.09,6.63,9.65h-4.04l-4.68-7.07-4.54,7.07h-4.01l6.63-9.65-6.29-9.18Z"/>
  </g>
  <g>
    <circle class="cls-3" cx="698.95" cy="383.01" r="40.5"/>
    <path class="cls-1" d="M698.95,343.01c22.06,0,40,17.94,40,40s-17.94,40-40,40-40-17.94-40-40,17.94-40,40-40M698.95,342.01c-22.64,0-41,18.36-41,41s18.36,41,41,41,41-18.36,41-41-18.36-41-41-41h0Z"/>
  </g>
  <g>
    <path class="cls-1" d="M672.88,368.16h5.01l7.42,21.83,7.37-21.83h4.98v25.82h-3.34v-15.24c0-.53.01-1.4.04-2.62s.04-2.53.04-3.92l-7.37,21.78h-3.47l-7.44-21.78v.79c0,.63.02,1.6.05,2.89s.05,2.25.05,2.86v15.24h-3.34v-25.82Z"/>
    <path class="cls-1" d="M703.29,368.16h18.74v3.16h-15.33v7.84h14.17v2.99h-14.17v8.75h15.59v3.08h-19v-25.82Z"/>
  </g>
  <g>
    <ellipse class="cls-2" cx="1588.45" cy="213.01" rx="87" ry="39.5"/>
    <path class="cls-1" d="M1588.45,174.01c47.7,0,86.5,17.5,86.5,39s-38.8,39-86.5,39-86.5-17.5-86.5-39,38.8-39,86.5-39M1588.45,173.01c-48.32,0-87.5,17.91-87.5,40s39.18,40,87.5,40,87.5-17.91,87.5-40-39.18-40-87.5-40h0Z"/>
  </g>
  <g>
    <path class="cls-1" d="M1549.24,198.34h3.96l9.37,25.82h-3.83l-2.62-7.73h-10.21l-2.79,7.73h-3.59l9.72-25.82ZM1554.98,213.58l-3.92-11.41-4.17,11.41h8.09Z"/>
    <path class="cls-1" d="M1565.74,198.34h4.12l12.88,20.86v-20.86h3.34v25.82h-3.93l-13.07-20.84v20.84h-3.34v-25.82Z"/>
    <path class="cls-1" d="M1591.9,198.34h10.32c3.5,0,6.22,1.26,8.15,3.78,1.72,2.27,2.58,5.19,2.58,8.74,0,2.74-.51,5.22-1.53,7.44-1.79,3.91-4.88,5.87-9.25,5.87h-10.29v-25.82ZM1601.53,221.18c1.16,0,2.11-.12,2.85-.37,1.33-.46,2.42-1.34,3.27-2.64.68-1.04,1.16-2.38,1.46-4.01.17-.97.26-1.88.26-2.71,0-3.2-.62-5.68-1.86-7.45-1.24-1.77-3.25-2.65-6.01-2.65h-6.07v19.83h6.1Z"/>
    <path class="cls-1" d="M1615.75,198.34h4.08l7.42,12.41,7.42-12.41h4.12l-9.78,15.42v10.41h-3.5v-10.41l-9.76-15.42Z"/>
  </g>
</svg>